<?xml version="1.0" encoding="UTF-8"?>
<svg width="42px" height="44px" viewBox="0 0 42 44" version="1.1" xmlns="http://www.w3.org/2000/svg" xmlns:xlink="http://www.w3.org/1999/xlink">
    <!-- Generator: Sketch 50.2 (55047) - http://www.bohemiancoding.com/sketch -->
    <title>kitty</title>
    <desc>Created with Sketch.</desc>
    <defs></defs>
    <g id="Page-1" stroke="none" stroke-width="1" fill="none" fill-rule="evenodd">
        <g id="Vård_av_katt" transform="translate(-20.000000, -11.000000)" fill-rule="nonzero">
            <g id="LOGO" transform="translate(20.000000, 11.000000)">
                <g id="kitty">
                    <g id="Group" transform="translate(25.789474, 0.000000)" fill="#EDA751">
                        <path d="M2.43973455,15.2842334 C0.168851259,13.3975926 -1.34738673,10.2304285 1.85575286,5.54846873 C5.08416476,0.829523839 9.89083753,-0.353302786 13.6433227,0.0844377709 C14.5684302,0.192302786 15.3447231,0.83729969 15.6127506,1.72055666 C16.699762,5.30352941 16.3578307,10.1957362 12.2248513,14.1630155 C8.12409153,18.0993907 4.71061785,17.170974 2.43973455,15.2842334 Z" id="Shape"></path>
                    </g>
                    <path d="M40.8923902,2.21052632 C41.7691127,5.75704688 41.2733499,10.3904659 37.4108578,14.1846749 C33.9141703,17.6193944 30.9260235,17.3740143 28.7368421,16.0110256 C30.2423562,5.65548259 36.8193103,2.90943314 40.8923902,2.21052632 Z" id="Shape" fill="#FF91AB"></path>
                    <path d="M13.7796644,15.3199183 C16.0634633,13.4288736 17.5883249,10.2543167 14.3669675,5.56142831 C11.1201941,0.831568342 6.28628476,-0.354119171 2.51235621,0.084643164 C1.58198713,0.192859882 0.80127908,0.83926242 0.53182848,1.72458109 C-0.561365312,5.31591725 -0.217489236,10.2195435 3.93899638,14.1960832 C8.06297782,18.1416468 11.4958655,17.2110629 13.7796644,15.3199183 Z" id="Shape" fill="#EDA751"></path>
                    <path d="M0.370767725,2.21052632 C-0.505954783,5.75704688 -0.010192027,10.3904659 3.85230006,14.1846749 C7.34898758,17.6193944 10.3371344,17.3740143 12.5263158,16.0110256 C11.0208017,5.65548259 4.44384755,2.90943314 0.370767725,2.21052632 Z" id="Shape" fill="#FF91AB"></path>
                    <path d="M0.736842105,17.9010741 C0.736842105,26.9737192 9.64401321,30.9473684 20.6315789,30.9473684 C31.6191447,30.9473684 40.5263158,26.973618 40.5263158,17.9010741 C40.5263158,8.828429 31.6191447,1.47368421 20.6315789,1.47368421 C9.64401321,1.47368421 0.736842105,8.828429 0.736842105,17.9010741 Z" id="Shape" fill="#FFDC9C"></path>
                    <path d="M10.0472775,4.42105263 C4.45240359,7.31337856 0.736842105,12.4129741 0.736842105,18.2221389 C0.736842105,25.9707394 7.34630037,29.9756916 16.2105263,30.9473684 C3.4862782,23.4469113 5.14569273,13.3581288 10.0472775,4.42105263 Z" id="Shape" fill="#C17A00" opacity="0.15"></path>
                    <g id="Group" transform="translate(2.210526, 15.473684)" fill="#495059">
                        <path d="M22.2034306,3.21227068 C22.0106124,3.21227068 21.8176938,3.1407218 21.6705933,2.99762406 C21.3762919,2.71123308 21.3762919,2.24714286 21.6705933,1.96075188 L23.4185167,0.260390977 C23.7128182,-0.0258045113 24.1899904,-0.0258045113 24.4842919,0.260390977 C24.7785933,0.546781955 24.7785933,1.01087218 24.4842919,1.29716541 L22.7363684,2.99752632 C22.5891675,3.1407218 22.3963493,3.21227068 22.2034306,3.21227068 Z" id="Shape"></path>
                        <path d="M23.9514545,3.21227068 C23.7586364,3.21227068 23.5657177,3.1407218 23.4186172,2.99762406 L21.6706938,1.29726316 C21.3763923,1.01087218 21.3763923,0.546781955 21.6706938,0.260488722 C21.9649952,-0.0257067669 22.4421675,-0.0257067669 22.7364689,0.260488722 L24.4843923,1.96084962 C24.7786938,2.2472406 24.7786938,2.71133083 24.4843923,2.9977218 C24.3370909,3.1407218 24.1442727,3.21227068 23.9514545,3.21227068 Z" id="Shape"></path>
                        <path d="M8.76192344,3.21227068 C8.56910526,3.21227068 8.3761866,3.1407218 8.22908612,2.99762406 L6.4810622,1.29726316 C6.18676077,1.01087218 6.18676077,0.546781955 6.4810622,0.260488722 C6.77536364,-0.0257067669 7.25253589,-0.0257067669 7.54673684,0.260488722 L9.29466029,1.96084962 C9.58896172,2.2472406 9.58896172,2.71133083 9.29466029,2.9977218 C9.14766029,3.1407218 8.95484211,3.21227068 8.76192344,3.21227068 Z" id="Shape"></path>
                        <path d="M7.014,3.21227068 C6.82118182,3.21227068 6.62826316,3.1407218 6.48116268,2.99762406 C6.18686124,2.71123308 6.18686124,2.24714286 6.48116268,1.96075188 L8.2291866,0.260390977 C8.52348804,-0.0258045113 9.00066029,-0.0258045113 9.29486124,0.260390977 C9.58916268,0.546781955 9.58916268,1.01087218 9.29486124,1.29716541 L7.5469378,2.99752632 C7.39973684,3.1407218 7.20681818,3.21227068 7.014,3.21227068 Z" id="Shape"></path>
                        <path d="M30.1919713,5.41181203 C30.1313828,5.41181203 30.0699904,5.40467669 30.0085981,5.3897218 C29.1968325,5.1922782 27.0488038,5.03930827 26.1202823,5.15904511 C25.7080191,5.21231579 25.3291148,4.92954135 25.274555,4.52830075 C25.2200957,4.12686466 25.510378,3.75846617 25.9230431,3.70548872 C27.0601579,3.55965414 29.3947751,3.72914286 30.3742392,3.96734586 C30.7780622,4.06557895 31.0235311,4.46359398 30.9225502,4.85633083 C30.8368421,5.18944361 30.5295789,5.41181203 30.1919713,5.41181203 Z" id="Shape"></path>
                        <path d="M29.0549569,9.52684962 C28.8995167,9.52684962 28.7426699,9.48012782 28.6080287,9.38345865 C27.9347225,8.90011278 26.0084498,7.96274436 25.1033397,7.72893985 C24.7011244,7.62503759 24.4615837,7.2236015 24.5683923,6.83223308 C24.675201,6.44096241 25.087866,6.20823308 25.4901818,6.31184211 C26.5986603,6.59823308 28.6905215,7.62044361 29.5030909,8.20378195 C29.8379856,8.44423308 29.9090239,8.90314286 29.6619474,9.22892481 C29.5141435,9.42372932 29.2860574,9.52684962 29.0549569,9.52684962 Z" id="Shape"></path>
                        <path d="M0.773382775,5.41181203 C0.43577512,5.41181203 0.128511962,5.18944361 0.0428038278,4.85623308 C-0.058076555,4.4633985 0.187392344,4.0654812 0.591215311,3.96724812 C1.57088038,3.72914286 3.90539713,3.5593609 5.04241148,3.70539098 C5.45497608,3.75836842 5.74535885,4.12676692 5.69089952,4.52810526 C5.63644019,4.92954135 5.25803828,5.2121203 4.84517225,5.15894737 C3.91634928,5.03979699 1.76852153,5.1922782 0.956755981,5.38962406 C0.895363636,5.40467669 0.833870813,5.41181203 0.773382775,5.41181203 Z" id="Shape"></path>
                        <path d="M1.91039713,9.52684962 C1.67929665,9.52684962 1.451311,9.42372932 1.30350718,9.22902256 C1.05633014,8.9032406 1.1274689,8.44433083 1.46236364,8.2038797 C2.27483254,7.62044361 4.36679426,6.59813534 5.47527273,6.31193985 C5.87748804,6.20823308 6.29015311,6.44106015 6.3970622,6.83233083 C6.50387081,7.22369925 6.26433014,7.62503759 5.86211483,7.72903759 C4.95700478,7.96284211 3.03073206,8.90001504 2.35742584,9.38355639 C2.22268421,9.48012782 2.06583732,9.52684962 1.91039713,9.52684962 Z" id="Shape"></path>
                    </g>
                    <circle id="Oval" fill="#FF91AB" cx="18.4210526" cy="19.1578947" r="2.94736842"></circle>
                    <g id="Group" transform="translate(2.210526, 19.157895)" fill="#78CFC0">
                        <path d="M5.99781421,6.73377955 C8.63353466,1.78790811 16.5724044,-0.170210526 18.3800834,0.103142796 C18.5345988,3.50536022 17.1189963,13.5262558 13.1579666,14.5888758 C10.092623,15.4112278 8.69966926,12.9201549 9.06778832,11.5201035 C7.45629853,12.5917921 3.26153293,11.868497 5.99781421,6.73377955 Z" id="Shape"></path>
                        <path d="M0.0154012079,15.6725229 C0.0154012079,16.8421721 1.09620362,17.7902886 2.42936439,17.7902886 C3.76252517,17.7902886 4.84332758,16.8421721 4.84332758,15.6725229 C4.84332758,14.5028736 4.19718148,13.249016 2.86392005,13.249016 C1.53065861,13.249016 0.0154012079,14.5028736 0.0154012079,15.6725229 Z" id="Shape"></path>
                        <path d="M3.60106414,22.595547 C3.60106414,23.5259249 4.43504458,24.280113 5.463805,24.280113 C6.49256543,24.280113 7.45227207,23.4013563 7.45227207,22.4709784 C7.45227207,21.5406005 6.67647397,20.8246799 5.64771355,20.8246799 C4.61895312,20.8246799 3.60106414,21.6652688 3.60106414,22.595547 Z" id="Shape"></path>
                    </g>
                    <g id="Group" opacity="0.1" transform="translate(4.421053, 24.315789)" fill="#000000">
                        <ellipse id="Oval" cx="6.63422535" cy="3.07325602" rx="1" ry="1"></ellipse>
                        <ellipse id="Oval" cx="13.2004225" cy="0.774308653" rx="1" ry="1"></ellipse>
                        <ellipse id="Oval" cx="10.8450704" cy="6.28139161" rx="1" ry="1"></ellipse>
                        <ellipse id="Oval" cx="0.728591549" cy="11.0001784" rx="1" ry="1"></ellipse>
                    </g>
                </g>
            </g>
        </g>
    </g>
</svg>