<?xml version="1.0" encoding="UTF-8" standalone="no"?>
<!-- Created with Inkscape (http://www.inkscape.org/) -->
<svg
   xmlns:svg="http://www.w3.org/2000/svg"
   xmlns="http://www.w3.org/2000/svg"
   version="1.0"
   width="437.42001"
   height="496.83499"
   viewBox="0 0 437.42 496.835"
   id="Layer_1"
   xml:space="preserve"><defs
   id="defs244" />

<metadata>
<rdf:RDF
      xmlns="http://web.resource.org/cc/"
      xmlns:dc="http://purl.org/dc/elements/1.1/"
      xmlns:rdf="http://www.w3.org/1999/02/22-rdf-syntax-ns#">
      <Work rdf:about="">
         <dc:title>Cartoon Cat Sitting</dc:title>
         <dc:description>Cartoon Cat Sitting</dc:description>
         <dc:subject>
          <rdf:Bag>
            <rdf:li>animal</rdf:li>
		<rdf:li>cat</rdf:li>
		<rdf:li>cartoon</rdf:li>
          </rdf:Bag>
         </dc:subject>
         <dc:publisher><Agent rdf:about="http://www.openclipart.org/"><dc:title>Open Clip Art Project</dc:title></Agent></dc:publisher>
         <dc:creator><Agent rdf:about=""><dc:title>worldlabel.com - SVG by Gerald G.</dc:title></Agent></dc:creator>
         <dc:rights><Agent rdf:about="http://web.resource.org/cc/PublicDomain"><dc:title>Public Domain</dc:title></Agent></dc:rights>
         <dc:date>2006/10/02</dc:date>
         <dc:format>image/svg+xml</dc:format>
         <dc:type>http://purl.org/dc/dcmitype/StillImage</dc:type>
         <license rdf:resource="http://web.resource.org/cc/PublicDomain" />
      </Work>
      <License rdf:about="http://web.resource.org/cc/PublicDomain">
         <permits rdf:resource="http://web.resource.org/cc/Reproduction" />
         <permits rdf:resource="http://web.resource.org/cc/Distribution" />
         <permits rdf:resource="http://web.resource.org/cc/DerivativeWorks" />
      </License>
   </rdf:RDF>
</metadata>


<g
   id="g5">
	<path
   d="M 437.32,264.592 C 436.029,250.668 425.33,237.771 415.918,226.941 C 406.376,216.11 394.383,204.248 380.717,200.25 C 367.177,196.511 345.515,196.899 334.813,203.862 C 324.239,211.083 321.919,230.81 317.664,242.416 C 313.54,254.023 314.184,264.079 310.185,272.847 C 306.058,281.488 299.613,288.576 293.294,294.25 C 286.849,299.794 277.047,305.467 269.311,307.79 L 269.311,307.79 C 273.824,312.043 277.047,317.975 278.467,325.582 C 279.884,333.061 279.625,341.83 277.691,352.402 L 277.691,352.402 C 296.646,344.537 311.218,334.61 321.92,322.102 C 332.364,308.951 334.814,291.154 340.746,277.744 C 346.419,264.338 349.256,249.766 356.733,243.961 C 364.083,238.158 376.718,239.063 384.715,243.704 C 391.805,248.217 396.833,264.079 402.763,270.913 C 408.953,277.618 415.016,280.839 421.461,282.515 L 421.461,282.515 C 421.46,282.514 438.74,278.52 437.32,264.592 L 437.32,264.592 z "
   style="fill-rule:evenodd;stroke:#000000;stroke-width:0.036;stroke-miterlimit:10"
   id="path7" />
	<path
   d="M 283.238,347.243 C 283.238,339.894 282.206,333.318 281.175,326.998 C 279.625,320.422 278.079,315.008 275.502,309.334 L 275.502,309.334 L 283.364,305.855 L 283.364,305.855 C 288.524,308.048 293.035,311.399 297.422,315.396 C 301.545,319.65 305.155,323.907 308.25,330.094 L 308.25,330.094 C 304.899,332.801 301.416,335.638 297.293,338.604 C 292.906,341.185 288.393,344.536 283.238,347.243 L 283.238,347.243 z "
   style="fill:#a16121;fill-rule:evenodd;stroke:#000000;stroke-width:0.036;stroke-miterlimit:10"
   id="path9" />
	<path
   d="M 310.958,326.483 C 309.541,323.388 306.833,319.778 302.835,316.169 C 298.578,312.301 293.552,308.433 286.717,304.049 L 286.717,304.049 C 288.652,303.018 289.939,301.342 291.618,300.44 C 292.775,298.891 294.325,298.118 295.227,296.698 L 295.227,296.698 C 298.578,295.67 302.191,295.796 306.056,295.67 C 309.54,295.54 314.181,295.411 318.05,296.828 C 322.047,297.859 325.399,299.794 329.138,302.631 L 329.138,302.631 C 326.819,308.049 324.237,312.561 321.4,316.685 C 318.18,320.681 314.697,323.776 310.958,326.483 L 310.958,326.483 z "
   style="fill:#ffc080;fill-rule:evenodd;stroke:#000000;stroke-width:0.036;stroke-miterlimit:10"
   id="path11" />
	<path
   d="M 330.559,297.604 C 331.46,295.022 332.235,292.833 333.395,289.608 C 334.427,286.257 335.843,283.291 337.134,279.294 L 337.134,279.294 C 334.038,278.905 330.3,278.262 325.917,278.776 C 321.271,279.164 316.116,279.294 309.925,280.58 L 309.925,280.58 C 308.121,283.291 306.187,285.74 304.64,287.934 C 302.835,289.868 301.16,291.543 299.612,292.959 L 299.612,292.959 C 305.285,291.543 310.313,291.025 315.728,291.931 C 321.016,292.573 325.788,294.637 330.559,297.604 L 330.559,297.604 z "
   style="fill:#a16121;fill-rule:evenodd;stroke:#000000;stroke-width:0.036;stroke-miterlimit:10"
   id="path13" />
	<path
   d="M 312.248,276.586 C 315.215,275.554 318.695,275.035 323.207,275.035 C 327.334,274.906 332.494,275.294 338.167,276.197 L 338.167,276.197 L 341.004,268.205 L 341.004,268.205 C 338.422,263.818 335.33,260.209 331.718,256.858 C 327.849,253.374 323.984,250.667 319.082,248.215 L 319.082,248.215 C 317.922,255.049 317.019,260.597 315.858,265.368 C 314.571,270.009 313.539,273.749 312.248,276.586 L 312.248,276.586 z "
   style="fill:#ffc080;fill-rule:evenodd;stroke:#000000;stroke-width:0.036;stroke-miterlimit:10"
   id="path15" />
	<path
   d="M 342.418,263.56 C 340.873,260.209 338.421,257.114 335.07,253.763 C 331.46,250.28 326.945,247.056 321.53,243.575 L 321.53,243.575 C 322.302,237.256 323.852,232.358 324.755,228.359 C 326.043,224.234 326.69,221.526 328.107,219.72 L 328.107,219.72 C 332.748,222.3 336.876,226.168 340.486,231.325 C 344.094,236.483 346.805,242.156 349.125,249.765 L 349.125,249.765 C 348.223,251.44 347.062,253.892 346.159,256.082 C 344.997,258.145 343.582,260.981 342.418,263.56 L 342.418,263.56 z "
   style="fill:#a16121;fill-rule:evenodd;stroke:#000000;stroke-width:0.036;stroke-miterlimit:10"
   id="path17" />
	<path
   d="M 352.35,243.831 C 351.448,238.674 349.383,233.775 345.644,229.133 C 341.516,224.362 337.004,219.848 330.169,215.593 L 330.169,215.593 C 330.559,211.854 332.234,209.017 335.714,207.083 C 339.068,204.763 343.709,203.474 350.156,202.699 L 350.156,202.699 C 355.186,205.923 358.925,210.179 360.859,215.98 C 362.792,221.653 363.047,228.745 361.631,237.255 L 361.631,237.255 C 359.179,237.901 357.245,238.803 355.828,239.963 C 354.154,240.994 352.994,242.285 352.35,243.831 L 352.35,243.831 z "
   style="fill:#ffc080;fill-rule:evenodd;stroke:#000000;stroke-width:0.036;stroke-miterlimit:10"
   id="path19" />
	<path
   d="M 364.727,235.966 C 364.727,235.45 365.885,235.064 367.69,235.32 C 369.37,235.32 372.207,235.449 375.687,236.224 L 375.687,236.224 C 377.621,230.678 379.684,225.78 382.906,221.525 C 385.873,217.14 389.481,213.401 393.738,210.306 L 393.738,210.306 C 388.709,207.341 384.841,205.408 380.199,203.989 C 375.687,202.312 370.916,202.312 367.305,201.925 C 363.566,201.409 360.083,201.409 357.375,201.925 L 357.375,201.925 C 360.601,205.407 363.438,209.79 364.468,215.592 C 365.885,221.396 365.5,227.714 364.727,235.966 L 364.727,235.966 z "
   style="fill:#a16121;fill-rule:evenodd;stroke:#000000;stroke-width:0.036;stroke-miterlimit:10"
   id="path21" />
	<path
   d="M 379.684,237.644 C 379.425,234.548 380.971,230.939 383.807,226.811 C 386.774,222.556 390.513,217.785 396.574,212.5 L 396.574,212.5 C 401.217,216.109 404.441,219.203 407.277,221.783 C 409.985,224.362 411.275,225.908 412.178,227.456 L 412.178,227.456 C 412.048,230.938 411.275,234.29 409.855,238.029 C 407.92,241.896 404.826,246.153 402.636,249.376 C 400.573,252.087 398.249,253.504 396.704,254.147 L 396.704,254.147 C 394.126,248.732 391.415,244.862 388.578,242.025 C 385.742,239.189 382.78,237.901 379.684,237.644 L 379.684,237.644 z "
   style="fill:#ffc080;fill-rule:evenodd;stroke:#000000;stroke-width:0.036;stroke-miterlimit:10"
   id="path23" />
	<path
   d="M 414.885,229.521 C 415.917,234.291 415.141,238.417 412.563,243.317 C 409.726,247.96 405.084,252.343 398.638,256.984 L 398.638,256.984 C 400.573,262.402 403.538,266.785 407.533,270.653 C 411.92,274.392 417.594,278.39 422.493,278.645 C 426.488,277.743 431.646,273.749 433.066,269.107 C 434.483,264.207 432.42,259.306 429.842,252.471 C 426.488,245.765 421.975,238.287 414.885,229.521 L 414.885,229.521 z "
   style="fill:#a16121;fill-rule:evenodd;stroke:#000000;stroke-width:0.036;stroke-miterlimit:10"
   id="path25" />
	<path
   d="M 410.499,212.5 C 408.825,213.272 407.921,213.789 406.376,215.464 C 404.571,216.755 401.989,219.462 400.702,220.622 C 399.152,221.267 397.089,221.526 397.991,220.365 C 398.25,218.689 401.604,214.821 404.054,212.757 C 406.506,210.823 410.758,207.47 412.823,207.6 C 414.11,207.213 415.016,209.535 414.499,210.566 C 414.238,211.338 411.401,211.338 410.499,212.5 L 410.499,212.5 z "
   style="fill-rule:evenodd;stroke:#000000;stroke-width:0.036;stroke-miterlimit:10"
   id="path27" />
	<path
   d="M 416.171,217.528 C 415.015,217.915 413.594,218.946 412.433,220.107 C 410.498,221.396 408.825,223.587 407.408,224.619 C 406.117,225.006 404.182,225.392 405.085,224.362 C 405.215,223.071 408.18,219.203 410.499,217.657 C 412.563,215.337 416.432,213.659 418.106,213.143 C 419.267,213.015 419.782,214.561 419.657,215.723 C 419.008,216.11 417.205,216.882 416.171,217.528 L 416.171,217.528 z "
   style="fill-rule:evenodd;stroke:#000000;stroke-width:0.036;stroke-miterlimit:10"
   id="path29" />
	<path
   d="M 330.3,318.232 C 329.268,316.683 328.107,315.91 326.82,314.494 C 324.885,312.688 322.174,310.625 321.147,309.334 C 320.115,307.918 319.466,305.855 321.147,306.627 C 322.433,307.016 326.82,309.464 329.398,311.912 C 331.717,314.105 334.553,317.974 335.456,320.038 C 335.844,321.584 333.266,322.23 332.619,321.972 C 331.717,321.454 330.943,319.395 330.3,318.232 L 330.3,318.232 z "
   style="fill-rule:evenodd;stroke:#000000;stroke-width:0.036;stroke-miterlimit:10"
   id="path31" />
	<path
   d="M 325.917,324.421 C 325.011,323.004 323.853,322.357 322.95,321.069 C 321.146,319.519 318.953,317.844 317.921,316.557 C 317.019,315.266 316.501,313.461 317.921,314.105 C 318.694,314.364 323.076,316.557 325.14,318.747 C 326.82,320.681 329.911,324.035 330.428,325.841 C 330.559,327.128 328.754,327.904 327.976,327.646 C 327.075,327.257 326.561,325.193 325.917,324.421 L 325.917,324.421 z "
   style="fill-rule:evenodd;stroke:#000000;stroke-width:0.036;stroke-miterlimit:10"
   id="path33" />
	<path
   d="M 147.462,246.153 C 134.182,245.894 123.091,249.376 113.679,256.082 C 104.008,262.787 95.369,276.456 90.728,286.127 C 85.829,295.539 83.507,303.531 84.281,311.527 L 84.281,311.527 C 72.934,312.3 63.522,315.266 55.01,320.422 C 46.114,325.711 37.99,332.675 33.607,342.343 C 29.48,351.755 29.48,367.359 30.641,377.159 C 31.8,386.571 36.444,391.726 39.537,398.561 C 42.245,405.136 43.921,410.296 45.985,415.452 L 45.985,415.452 C 36.959,417.904 31.027,420.741 26.642,425.895 C 22.646,430.666 20.453,438.145 20.582,443.819 C 20.067,448.977 20.711,454.261 24.064,457.228 C 27.287,460.065 31.799,460.708 39.02,460.194 L 39.02,460.194 C 40.182,465.998 43.019,470.638 47.53,472.703 C 52.044,475.151 59.652,475.022 65.842,473.734 C 71.642,472.055 77.317,468.575 82.861,463.29 L 82.861,463.29 C 84.407,467.933 86.214,472.186 88.792,474.637 C 90.985,477.473 93.821,478.506 97.301,479.149 C 100.784,479.667 104.909,478.378 109.68,476.702 L 109.68,476.702 C 108.648,481.473 110.326,484.694 114.194,485.855 C 117.933,487.016 124.38,486.499 133.019,484.309 L 133.019,484.309 C 134.825,492.301 139.466,496.299 146.946,496.813 C 154.551,496.943 169.509,493.976 177.374,486.887 C 184.853,479.666 190.01,469.222 192.332,455.036 L 192.332,455.036 C 195.813,468.319 200.067,477.086 206.644,482.374 C 212.833,487.145 223.791,487.145 229.595,485.34 C 235.009,483.532 238.492,478.377 239.525,470.898 L 239.525,470.898 C 245.329,476.572 251.128,478.89 256.415,478.377 C 261.571,477.604 266.73,473.476 271.372,466.513 L 271.372,466.513 C 276.402,469.35 280.399,469.995 283.88,468.963 C 286.975,467.674 289.424,464.193 291.229,459.033 L 291.229,459.033 C 299.87,468.963 307.347,473.605 313.149,474.378 C 318.822,474.767 323.335,470.639 326.171,462 L 326.171,462 C 337.518,462.388 343.839,460.065 347.06,454.521 C 349.767,448.719 347.962,435.956 343.063,429.122 C 338.036,422.029 329.397,416.743 317.148,412.745 L 317.148,412.745 C 336.746,392.76 347.189,376.642 349.512,362.976 C 351.317,349.307 340.354,338.348 330.04,331.644 C 319.596,324.55 305.671,321.07 287.748,321.199 L 287.748,321.199 C 290.455,300.181 288.008,283.805 280.399,271.043 C 272.404,258.405 253.836,250.41 242.103,245.638 C 230.367,240.608 220.052,238.804 210.64,240.738 L 210.64,240.738 L 147.462,246.153 L 147.462,246.153 z "
   style="fill-rule:evenodd;stroke:#000000;stroke-width:0.036;stroke-miterlimit:10"
   id="path35" />
	<path
   d="M 121.159,257.631 C 115.871,259.95 111.1,263.434 107.362,267.044 C 103.493,270.524 100.27,274.522 97.691,280.065 C 94.597,285.48 90.729,292.958 89.053,300.051 C 87.118,306.885 86.474,313.846 87.118,321.971 C 87.375,329.964 89.181,338.733 91.502,347.242 C 93.437,355.367 96.917,363.359 100.527,371.225 L 100.527,371.225 C 112.391,358.718 118.967,350.851 121.675,345.696 C 123.995,340.796 118.322,341.957 115.098,341.698 C 111.617,341.054 106.846,341.054 100.786,341.698 L 100.786,341.698 C 105.041,337.57 108.65,334.608 112.133,331.767 C 115.098,328.805 120.772,326.996 120.643,325.321 C 120.127,323.516 114.97,322.873 110.715,321.842 C 106.33,320.296 100.657,318.617 94.211,316.812 L 94.211,316.812 C 100.271,313.333 106.589,311.009 113.166,308.432 C 119.742,305.595 131.99,304.563 133.021,302.373 C 133.408,300.31 122.319,298.504 117.16,296.441 C 111.747,294.118 106.589,291.799 101.173,288.962 L 101.173,288.962 C 112.262,286.38 120.257,284.191 124.641,280.966 C 128.637,277.741 128.121,274.261 127.605,270.523 C 126.702,266.525 125.026,262.402 121.159,257.631 L 121.159,257.631 z "
   style="fill:#a16121;fill-rule:evenodd;stroke:#000000;stroke-width:0.036;stroke-miterlimit:10"
   id="path37" />
	<path
   d="M 246.617,252.087 C 255.256,255.308 261.703,258.789 267.376,263.046 C 272.794,267.299 276.404,271.297 278.723,276.456 L 278.723,276.456 C 265.058,282.259 254.997,285.609 248.552,287.029 C 241.847,288.187 239.528,289.477 239.528,283.933 C 238.879,277.872 241.715,267.429 246.617,252.087 L 246.617,252.087 z "
   style="fill:#a16121;fill-rule:evenodd;stroke:#000000;stroke-width:0.036;stroke-miterlimit:10"
   id="path39" />
	<path
   d="M 279.11,278.131 C 281.559,280.968 283.494,285.096 284.396,291.93 C 285.169,298.505 285.298,307.401 284.783,317.586 C 283.882,327.257 282.462,338.219 280.013,350.468 L 280.013,350.468 C 266.343,344.278 258.481,340.024 254.996,337.187 C 251.905,334.48 256.546,334.351 260.415,333.319 C 263.765,331.769 268.407,330.094 274.853,328.29 L 274.853,328.29 C 266.732,323.777 259.768,320.423 252.934,316.813 C 245.584,313.204 234.496,311.399 234.626,307.918 C 235.011,304.179 247.134,300.824 254.996,295.925 C 262.349,290.898 270.212,284.966 279.11,278.131 L 279.11,278.131 z "
   style="fill:#a16121;fill-rule:evenodd;stroke:#000000;stroke-width:0.036;stroke-miterlimit:10"
   id="path41" />
	<path
   d="M 319.082,331.384 C 326.303,334.221 332.104,338.219 336.487,341.958 C 340.745,346.081 343.582,349.95 344.997,354.979 C 346.547,359.621 346.418,363.36 344.612,369.68 C 342.16,375.997 338.167,382.831 331.591,391.597 L 331.591,391.597 C 317.403,385.668 309.282,381.282 307.217,377.029 C 305.154,372.517 314.312,370.709 319.212,367.099 C 323.983,363.36 333.909,358.203 335.07,356.141 C 335.329,354.335 326.56,354.465 322.691,355.109 C 318.179,355.109 313.02,357.946 311.729,356.655 C 310.827,354.85 314.44,349.694 316.116,345.697 C 317.278,341.44 318.436,336.669 319.082,331.384 L 319.082,331.384 z "
   style="fill:#a16121;fill-rule:evenodd;stroke:#000000;stroke-width:0.036;stroke-miterlimit:10"
   id="path43" />
	<path
   d="M 59.782,322.874 C 52.175,326.483 46.502,330.224 42.247,335.512 C 37.992,340.283 36.057,346.081 35.027,352.917 C 33.736,359.88 33.736,368.904 35.027,376.512 C 36.057,383.865 38.637,389.792 42.247,395.725 L 42.247,395.725 C 47.406,390.826 51.145,387.085 53.982,383.476 C 56.818,379.867 59.009,376.901 58.494,374.578 C 57.591,372.26 51.272,371.742 48.435,369.552 C 45.084,366.716 38.637,362.589 39.023,360.14 C 39.539,357.688 45.212,354.722 50.499,354.208 C 55.27,353.306 66.23,356.271 68.421,354.208 C 70.355,351.112 64.039,344.796 62.877,339.252 C 61.33,333.962 60.298,328.677 59.782,322.874 L 59.782,322.874 z "
   style="fill:#a16121;fill-rule:evenodd;stroke:#000000;stroke-width:0.036;stroke-miterlimit:10"
   id="path45" />
	<path
   d="M 122.447,254.021 C 125.8,258.534 128.25,263.045 129.797,267.043 C 131.215,270.911 133.923,274.133 130.957,278.13 C 127.604,281.999 120.257,285.738 109.425,289.865 L 109.425,289.865 C 118.322,291.541 125.284,293.734 129.798,296.441 C 134.569,299.148 138.049,302.629 136.761,305.336 C 134.696,307.271 125.673,307.015 119.611,309.074 C 113.68,311.009 106.717,313.073 100.14,316.298 L 100.14,316.298 C 109.297,317.844 115.486,319.777 119.225,321.583 C 122.833,323.003 123.48,325.066 121.676,327.773 C 119.354,330.74 115.099,334.349 107.363,339.12 L 107.363,339.12 C 114.454,337.959 119.354,338.088 122.062,339.505 C 124.511,340.796 126.576,341.055 123.223,347.242 C 119.87,353.175 112.52,361.943 101.689,374.576 L 101.689,374.576 C 105.17,381.54 108.395,388.76 111.876,395.723 C 115.229,402.429 118.323,409.393 121.676,416.097 L 121.676,416.097 C 112.905,418.032 105.558,421.771 99.626,427.828 C 93.438,433.891 87.506,444.076 85.83,451.424 C 84.153,458.388 86.217,464.576 89.054,468.961 C 91.891,472.96 97.434,475.408 101.69,475.797 C 105.171,475.923 108.396,473.862 111.877,470.124 C 115.23,465.865 118.969,459.934 122.579,451.812 L 122.579,451.812 C 120.128,457.485 118.324,462.641 116.647,466.769 C 114.714,470.766 113.423,474.247 112.263,476.699 L 112.263,476.699 C 113.81,480.437 116.389,482.886 119.998,483.53 C 123.867,483.789 129.024,481.724 133.409,480.307 C 136.89,478.759 139.727,478.374 142.435,474.634 C 144.755,470.377 146.949,463.932 148.494,455.292 L 148.494,455.292 C 150.041,463.287 149.396,469.09 147.978,474.116 C 145.916,479.017 143.08,481.723 138.05,483.658 L 138.05,483.658 C 138.436,488.947 140.501,492.039 145.658,492.941 C 150.429,493.587 160.745,491.135 167.192,488.045 C 173.768,484.435 179.055,481.854 183.567,473.861 C 187.306,465.477 190.014,454.131 191.69,441.238 C 192.592,428.216 192.851,410.549 192.465,397.656 C 192.206,384.763 190.918,373.673 189.627,364.389 L 189.627,364.389 C 185.374,363.874 181.762,363.357 178.28,362.326 C 174.67,361.423 171.704,360.391 168.868,358.717 C 165.644,356.398 157.521,350.206 159.456,350.077 C 161.26,350.077 173.251,356.139 179.441,357.813 C 185.114,358.845 188.983,359.489 194.527,357.813 C 199.943,355.621 208.453,348.142 211.161,347.24 C 213.096,346.467 210.515,350.979 207.938,353.815 C 204.841,356.523 200.975,359.489 194.786,363.227 L 194.786,363.227 C 196.076,381.15 196.72,396.882 197.235,410.937 C 197.494,424.731 194.786,436.208 196.591,446.912 C 197.879,457.096 200.846,468.188 205.487,474.246 C 210.001,480.565 216.703,483.658 222.634,483.529 C 228.182,483.014 232.695,478.503 237.594,470.507 L 237.594,470.507 C 234.369,467.412 232.051,464.319 230.631,460.706 C 229.084,456.842 228.052,453.357 228.052,448.845 L 228.052,448.845 C 231.275,454.518 234.757,459.16 238.496,463.287 C 242.49,467.156 246.359,471.024 250.616,472.959 C 254.613,474.375 257.965,474.375 261.189,472.959 C 263.638,471.538 265.573,468.442 266.474,464.19 L 266.474,464.19 C 259.64,460.58 254.997,456.452 252.033,452.326 C 248.811,448.201 248.294,443.56 249.07,438.915 L 249.07,438.915 C 252.55,446.522 256.548,451.811 261.574,456.711 C 266.345,460.965 273.438,464.963 277.95,465.736 C 282.078,466.382 283.754,465.092 286.46,460.836 C 288.912,455.81 293.684,445.364 292.777,438.401 C 291.49,431.566 288.525,425.892 279.884,419.962 C 270.86,413.385 257.579,407.583 239.528,401.008 L 239.528,401.008 C 251.131,391.34 260.417,382.829 266.862,374.963 C 273.309,367.227 277.437,360.136 278.723,354.204 L 278.723,354.204 C 265.959,348.013 257.45,343.112 252.678,339.503 C 248.037,335.894 247.52,333.315 250.615,331.766 C 253.193,329.577 258.995,328.415 268.537,327.772 L 268.537,327.772 C 257.449,323.645 248.939,319.776 242.489,316.681 C 235.914,313.201 230.369,310.878 229.856,308.17 C 229.212,304.949 233.984,302.497 239.268,299.275 C 244.552,295.536 251.517,292.181 261.188,287.799 L 261.188,287.799 C 249.454,291.279 241.461,292.698 237.205,291.538 C 232.821,290.506 233.465,287.669 235.141,280.964 C 236.432,273.874 239.528,263.43 244.942,249.631 L 244.942,249.631 C 236.947,247.956 228.181,247.18 217.219,247.309 C 206.002,247.309 192.205,247.956 180.342,249.247 C 168.093,250.276 155.844,251.436 146.043,252.728 C 136.373,253.245 128.509,254.147 122.447,254.021 L 122.447,254.021 z "
   style="fill:#ffc080;fill-rule:evenodd;stroke:#000000;stroke-width:0.036;stroke-miterlimit:10"
   id="path47" />
	<path
   d="M 82.218,315.91 C 82.477,324.68 84.152,334.479 87.246,345.308 C 90.342,356.011 94.854,368.774 100.27,380.638 C 105.298,392.115 110.457,402.945 116.774,413.646 L 116.774,413.646 C 108.264,417.645 101.431,422.028 96.789,425.766 C 91.761,429.379 89.956,433.374 87.892,436.728 C 85.571,439.95 83.767,442.402 82.993,446.141 C 81.832,449.879 81.573,453.748 82.219,458.779 L 82.219,458.779 C 76.932,464.707 71.775,468.445 66.747,470.509 C 60.944,471.929 55.142,471.67 50.887,469.736 C 46.632,467.802 43.925,464.707 42.248,459.935 L 42.248,459.935 C 48.826,457.747 53.207,455.036 56.433,452.329 C 59.397,449.492 60.558,446.656 60.429,443.305 L 60.429,443.305 C 54.499,448.204 49.34,452.329 43.925,454.262 C 38.122,456.069 31.803,458.262 28.453,455.938 C 25.1,453.106 22.908,444.85 23.939,439.695 C 24.585,434.152 28.453,428.604 32.578,424.994 C 36.575,421.386 41.088,419.192 47.148,418.419 L 47.148,418.419 C 55.528,427.702 59.783,431.7 60.428,430.927 C 60.557,429.381 52.949,418.16 49.984,412.745 C 47.148,407.072 44.569,402.946 42.762,398.951 L 42.762,398.951 C 48.05,394.694 51.918,390.826 55.786,386.313 C 59.139,381.672 64.166,375.74 63.91,372.518 C 62.748,369.681 56.431,369.034 52.434,367.618 C 48.694,365.555 45.342,363.231 41.86,360.654 L 41.86,360.654 C 44.311,358.331 48.309,357.174 52.821,356.656 C 57.335,356.142 66.231,358.849 69.584,357.817 C 72.034,356.271 71.129,352.014 70.356,348.016 C 69.197,343.633 66.876,338.089 65.456,333.449 C 64.427,328.933 63.136,324.551 63.008,320.811 L 63.008,320.811 C 66.36,319.265 69.454,318.363 72.806,317.586 C 76.029,316.558 78.995,316.169 82.218,315.91 L 82.218,315.91 z "
   style="fill:#ffc080;fill-rule:evenodd;stroke:#000000;stroke-width:0.036;stroke-miterlimit:10"
   id="path49" />
	<path
   d="M 287.62,324.421 C 286.718,339.636 284.012,352.273 280.014,362.329 C 275.243,372.517 268.409,377.673 262.477,384.249 C 256.676,390.31 251.259,395.337 245.715,399.335 L 245.715,399.335 C 261.832,405.396 273.438,410.94 281.947,416.483 C 290.069,421.897 292.906,427.057 295.358,431.958 C 297.421,436.081 296.26,439.048 295.871,442.916 C 295.358,446.915 293.938,450.653 292.133,455.166 L 292.133,455.166 C 296.389,460.324 300.643,464.063 304.382,466.9 C 308.25,469.349 311.605,471.541 314.956,471.027 C 317.922,470.126 320.63,467.543 323.077,462.772 L 323.077,462.772 C 320.115,460.453 317.663,458.13 315.728,454.78 C 313.409,451.297 311.73,447.816 310.184,443.304 L 310.184,443.304 C 313.664,449.106 317.792,453.748 323.077,455.812 C 328.366,458.002 337.778,458.648 341.389,456.713 C 344.484,453.877 344.484,447.173 343.452,442.013 C 341.907,436.598 339.714,430.796 334.429,426.156 C 328.882,421.255 321.791,417.385 311.732,414.036 L 311.732,414.036 C 311.606,412.875 313.411,410.682 316.119,407.46 C 319.084,404.234 322.953,399.723 328.757,394.435 L 328.757,394.435 C 320.76,390.181 314.958,386.572 310.83,383.088 C 306.318,379.737 301.547,377.285 303.999,373.676 C 306.577,369.422 313.541,364.781 325.92,358.72 L 325.92,358.72 C 314.443,362.588 308.383,363.102 306.19,360.783 C 304,357.947 312.122,348.919 313.668,343.634 C 315.088,338.22 315.218,333.32 314.574,328.934 L 314.574,328.934 C 308.384,327.129 303.741,326.097 299.099,325.324 C 294.584,324.421 290.586,324.291 287.62,324.421 L 287.62,324.421 z "
   style="fill:#ffc080;fill-rule:evenodd;stroke:#000000;stroke-width:0.036;stroke-miterlimit:10"
   id="path51" />
	<path
   d="M 221.859,61.769 C 222.506,57.771 225.858,52.871 231.401,47.069 C 236.946,40.622 246.358,32.886 255.127,26.825 C 263.379,20.765 273.309,15.092 281.43,11.352 C 289.037,7.227 295.871,4.647 301.416,3.099 C 306.446,1.295 310.443,-1.156 313.924,0.651 C 317.278,1.94 319.467,5.293 322.049,12.126 C 324.11,18.831 326.562,30.823 327.977,41.137 C 329.14,51.195 329.784,63.574 329.912,72.857 C 329.912,81.626 329.011,89.62 327.724,95.422 C 326.174,101.095 325.142,104.446 321.661,107.026 C 318.053,109.217 312.638,109.992 305.932,109.346 L 305.932,109.346 C 297.806,95.55 287.362,84.719 273.179,76.854 C 258.866,68.86 242.233,63.831 221.859,61.769 L 221.859,61.769 z "
   style="fill-rule:evenodd;stroke:#000000;stroke-width:0.036;stroke-miterlimit:10"
   id="path53" />
	<path
   d="M 225.343,59.705 C 226.889,56.998 228.695,54.032 231.273,51.324 C 233.594,48.229 236.431,45.262 239.783,42.426 L 239.783,42.426 C 240.814,42.555 243.007,42.942 245.844,43.588 C 248.681,43.974 252.16,45.006 256.803,46.168 L 256.803,46.168 C 254.095,47.585 251.13,49.132 248.94,52.228 C 246.618,55.192 244.041,58.287 242.234,62.929 L 242.234,62.929 C 237.723,62.027 233.854,61.381 231.143,60.994 C 228.18,60.351 226.246,60.092 225.343,59.705 L 225.343,59.705 z "
   style="fill:#ffc080;fill-rule:evenodd;stroke:#000000;stroke-width:0.036;stroke-miterlimit:10"
   id="path55" />
	<path
   d="M 261.447,24.634 C 256.676,27.987 253.062,31.081 249.583,33.917 C 246.232,36.368 243.521,38.688 241.462,40.365 L 241.462,40.365 C 243.522,40.752 246.103,41.008 249.195,41.654 C 252.291,42.171 255.127,43.072 259.125,43.845 L 259.125,43.845 C 260.027,43.072 260.801,42.556 261.962,41.783 C 262.864,40.881 264.025,40.236 265.441,39.333 L 265.441,39.333 C 264.283,36.237 263.378,33.273 262.735,30.952 C 261.832,28.373 261.573,26.438 261.447,24.634 L 261.447,24.634 z "
   style="fill:#a16121;fill-rule:evenodd;stroke:#000000;stroke-width:0.036;stroke-miterlimit:10"
   id="path57" />
	<path
   d="M 269.439,20.12 C 267.634,20.895 266.473,21.411 265.441,22.184 C 264.409,22.83 263.637,23.216 263.123,23.859 L 263.123,23.859 C 263.379,25.536 263.896,27.471 264.668,29.663 C 265.441,31.855 265.959,34.304 267.246,37.014 L 267.246,37.014 C 269.31,35.724 271.763,34.305 273.567,33.274 C 275.243,32.113 276.788,31.34 278.722,30.438 C 280.527,29.277 282.979,28.245 285.557,27.342 L 285.557,27.342 C 283.364,26.053 281.559,24.635 278.722,23.603 C 275.886,22.313 272.793,21.152 269.439,20.12 L 269.439,20.12 z "
   style="fill:#ffc080;fill-rule:evenodd;stroke:#000000;stroke-width:0.036;stroke-miterlimit:10"
   id="path59" />
	<path
   d="M 272.535,18.315 C 274.984,16.123 278.467,14.705 282.462,12.642 C 286.459,10.579 292.263,8.259 296.389,7.098 C 299.741,5.551 302.193,4.777 304.253,4.261 C 306.705,3.488 308.122,2.843 309.926,2.843 L 309.926,2.843 C 307.349,5.164 305.155,7.614 302.836,10.192 C 300.643,12.771 297.678,14.706 296.389,17.413 C 294.585,19.734 293.294,23.086 292.522,24.504 C 291.361,25.793 290.972,25.666 289.94,25.536 C 288.135,25.021 286.201,23.345 284.141,22.571 C 282.078,21.798 280.143,20.895 278.338,20.379 C 276.273,19.862 274.34,18.701 272.535,18.315 L 272.535,18.315 z "
   style="fill:#a16121;fill-rule:evenodd;stroke:#000000;stroke-width:0.036;stroke-miterlimit:10"
   id="path61" />
	<path
   d="M 312.377,3.358 C 309.669,5.809 307.217,8.129 305.028,10.32 C 302.835,12.384 300.771,14.319 299.354,16.639 C 297.804,18.83 296.387,21.41 295.611,23.858 L 295.611,23.858 C 297.804,22.829 299.739,22.956 301.415,22.829 C 302.965,22.699 303.35,23.086 304.64,23.989 C 305.543,24.763 306.704,26.052 307.607,27.857 C 308.25,29.405 309.152,31.209 309.8,33.273 L 309.8,33.273 C 310.701,30.307 311.73,28.502 312.891,26.439 C 314.053,24.376 315.084,22.83 316.501,21.797 C 317.792,20.379 319.466,19.218 321.016,18.316 L 321.016,18.316 C 319.986,13.417 318.953,9.806 317.404,7.485 C 315.858,5.034 314.182,3.488 312.377,3.358 L 312.377,3.358 z "
   style="fill:#ffc080;fill-rule:evenodd;stroke:#000000;stroke-width:0.036;stroke-miterlimit:10"
   id="path63" />
	<path
   d="M 321.531,20.249 C 319.082,22.054 317.404,24.117 315.473,26.954 C 313.409,29.662 312.119,32.627 310.572,36.367 L 310.572,36.367 C 310.572,38.044 311.345,39.849 311.476,41.783 C 311.476,43.329 312.247,45.007 312.377,46.811 L 312.377,46.811 C 315.214,48.488 318.051,50.035 320.37,51.453 C 322.691,52.871 324.496,54.032 326.302,55.451 L 326.302,55.451 C 325.787,49.262 325.4,43.718 325.14,39.334 C 324.885,34.434 323.983,31.597 323.853,28.374 C 323.207,25.15 322.433,22.442 321.531,20.249 L 321.531,20.249 z "
   style="fill:#a16121;fill-rule:evenodd;stroke:#000000;stroke-width:0.036;stroke-miterlimit:10"
   id="path65" />
	<path
   d="M 326.431,57.642 L 326.946,68.215 L 326.946,68.215 C 325.27,69.248 322.951,70.407 321.016,71.697 C 318.823,72.727 316.501,74.145 314.053,75.436 L 314.053,75.436 C 314.441,69.763 314.312,65.249 314.182,60.865 C 313.923,56.483 313.664,52.743 312.891,49.648 L 312.891,49.648 C 315.728,50.937 318.31,52.484 320.629,53.773 C 322.822,54.935 324.755,56.224 326.431,57.642 L 326.431,57.642 z "
   style="fill:#ffc080;fill-rule:evenodd;stroke:#000000;stroke-width:0.036;stroke-miterlimit:10"
   id="path67" />
	<path
   d="M 327.333,70.279 C 327.074,73.503 327.074,77.112 326.819,80.594 C 326.301,83.688 325.917,88.588 325.658,91.295 C 325.139,93.875 324.885,94.907 324.367,96.84 C 323.594,98.903 322.691,100.321 321.659,102.513 L 321.659,102.513 L 311.476,92.07 L 311.476,92.07 C 311.989,89.233 312.762,87.169 313.28,84.849 C 313.665,82.398 313.794,80.724 314.182,78.789 L 314.182,78.789 C 315.728,77.757 318.051,76.596 320.115,75.307 C 322.433,73.759 324.497,72.084 327.333,70.279 L 327.333,70.279 z "
   style="fill:#a16121;fill-rule:evenodd;stroke:#000000;stroke-width:0.036;stroke-miterlimit:10"
   id="path69" />
	<path
   d="M 309.925,93.745 C 309.541,94.648 308.121,95.422 306.704,96.066 C 304.769,96.711 302.835,97.097 299.87,97.743 L 299.87,97.743 C 301.159,99.548 302.835,100.707 303.867,102.641 C 304.898,104.189 305.802,105.866 306.574,107.671 L 306.574,107.671 C 308.509,108.186 310.183,108.186 312.636,107.671 C 314.955,107.155 317.019,105.607 319.855,104.059 L 319.855,104.059 C 316.376,100.965 314.053,97.999 312.377,96.58 C 310.572,95.034 309.925,93.616 309.925,93.745 L 309.925,93.745 z "
   style="fill:#ffc080;fill-rule:evenodd;stroke:#000000;stroke-width:0.036;stroke-miterlimit:10"
   id="path71" />
	<path
   d="M 297.936,95.293 C 301.286,94.777 303.738,93.616 305.802,92.327 C 307.607,90.779 308.38,89.749 309.541,86.268 C 310.442,81.883 311.345,76.08 311.729,69.891 C 311.729,63.445 311.603,56.869 310.827,50.164 C 309.541,43.459 307.991,34.692 306.186,30.824 C 304.51,26.826 302.317,25.923 299.611,26.182 C 296.387,25.794 292.132,26.826 287.36,29.276 C 281.946,31.21 275.37,35.079 269.697,38.947 C 263.895,42.3 257.448,47.973 254.352,50.937 C 251.001,53.517 251.128,54.548 249.84,56.483 C 248.035,58.287 247.003,60.479 245.329,62.543 L 245.329,62.543 C 251.516,64.477 257.447,66.153 263.121,68.603 C 268.535,70.538 273.694,72.729 278.591,75.695 C 283.362,78.661 288.651,82.916 292.002,86.398 C 295.228,89.62 297.034,92.585 297.936,95.293 L 297.936,95.293 z "
   style="fill:#a16121;fill-rule:evenodd;stroke:#000000;stroke-width:0.036;stroke-miterlimit:10"
   id="path73" />
	<path
   d="M 262.09,22.957 C 261.059,21.281 260.156,19.993 259.383,18.575 C 258.092,16.898 257.061,14.835 256.287,14.447 C 255.386,13.675 254.224,14.447 254.224,15.222 C 253.709,15.479 254.093,15.738 255.385,17.93 C 256.674,19.864 259.252,26.182 261.058,27.858 C 262.348,29.276 263.121,26.826 263.377,26.44 C 263.506,25.407 262.605,24.248 262.09,22.957 L 262.09,22.957 z "
   style="fill-rule:evenodd;stroke:#000000;stroke-width:0.036;stroke-miterlimit:10"
   id="path75" />
	<path
   d="M 255.773,24.504 C 254.484,23.345 252.934,22.313 251.647,21.411 C 249.712,19.863 248.421,19.09 247.26,18.575 C 245.843,18.445 245.455,19.091 245.584,19.993 C 245.584,20.379 245.584,20.379 247.647,22.055 C 249.582,23.732 254.352,28.373 256.416,29.535 C 257.833,30.437 258.222,27.858 258.092,27.342 C 257.579,26.309 256.802,25.536 255.773,24.504 L 255.773,24.504 z "
   style="fill-rule:evenodd;stroke:#000000;stroke-width:0.036;stroke-miterlimit:10"
   id="path77" />
	<path
   d="M 319.466,8.516 C 320.498,7.614 322.048,6.839 324.109,6.196 C 325.659,5.035 330.042,4.648 331.331,3.616 C 332.748,2.327 333.395,1.296 332.235,1.038 C 330.3,0.779 325.788,1.554 322.692,2.842 C 319.597,4.002 315.085,6.452 314.053,8.13 C 312.891,9.419 314.825,10.58 315.858,11.094 C 316.76,11.094 317.792,8.902 319.466,8.516 L 319.466,8.516 z "
   style="fill-rule:evenodd;stroke:#000000;stroke-width:0.036;stroke-miterlimit:10"
   id="path79" />
	<path
   d="M 321.147,15.737 C 322.303,14.962 323.207,14.319 325.27,13.803 C 326.946,12.901 330.041,12.126 331.591,11.482 C 332.747,10.191 333.521,9.418 332.493,9.161 C 330.686,9.032 326.689,9.418 323.982,10.837 C 321.015,11.483 317.533,14.189 316.501,15.479 C 315.343,16.64 317.019,17.672 318.051,18.059 C 318.823,17.799 319.855,16.381 321.147,15.737 L 321.147,15.737 z "
   style="fill-rule:evenodd;stroke:#000000;stroke-width:0.036;stroke-miterlimit:10"
   id="path81" />
	<path
   d="M 132.375,63.701 C 130.699,59.834 126.058,56.353 119.481,51.841 C 112.26,47.327 101.171,41.524 91.629,37.915 C 81.83,34.046 70.741,31.209 62.36,29.405 C 53.592,27.341 46.629,26.439 40.956,26.181 C 34.896,25.793 31.157,24.247 28.191,26.954 C 25.097,28.889 23.549,32.886 23.034,39.976 C 22.131,46.939 23.291,59.318 24.452,69.633 C 25.354,79.691 27.804,91.681 30.255,100.707 C 32.317,109.347 35.026,116.697 37.862,122.241 C 40.699,127.269 42.117,130.493 46.63,131.912 C 50.885,133.202 55.656,132.685 62.361,130.365 L 62.361,130.365 C 66.616,114.763 74.61,102.255 86.343,90.908 C 97.95,79.691 113.294,70.795 132.375,63.701 L 132.375,63.701 z "
   style="fill-rule:evenodd;stroke:#000000;stroke-width:0.036;stroke-miterlimit:10"
   id="path83" />
	<path
   d="M 128.379,62.542 C 126.058,60.221 123.479,58.028 120.642,55.966 C 117.419,53.902 113.936,51.195 110.198,49.261 L 110.198,49.261 C 109.296,49.647 106.975,50.55 104.655,51.969 C 101.947,53 98.594,55.192 94.596,57.126 L 94.596,57.126 C 97.819,57.385 100.399,59.189 103.751,61.124 C 106.975,62.929 109.555,66.282 112.904,69.763 L 112.904,69.763 C 117.159,67.959 120.384,66.282 123.091,65.249 C 125.542,63.831 127.477,62.929 128.379,62.542 L 128.379,62.542 z "
   style="fill:#ffc080;fill-rule:evenodd;stroke:#000000;stroke-width:0.036;stroke-miterlimit:10"
   id="path85" />
	<path
   d="M 84.926,37.398 C 90.213,39.589 94.597,41.782 98.594,43.458 C 102.333,45.262 105.686,46.554 108.135,47.842 L 108.135,47.842 C 106.073,48.358 103.492,49.517 100.915,50.808 C 98.207,52.097 94.983,53.644 91.76,55.449 L 91.76,55.449 C 90.599,54.676 89.696,54.676 88.536,54.031 C 87.118,53.386 85.957,52.87 84.538,52.483 L 84.538,52.483 C 84.667,49.39 85.054,46.037 85.184,43.844 C 85.185,41.008 84.926,39.333 84.926,37.398 L 84.926,37.398 z "
   style="fill:#a16121;fill-rule:evenodd;stroke:#000000;stroke-width:0.036;stroke-miterlimit:10"
   id="path87" />
	<path
   d="M 76.029,34.949 C 77.834,35.464 79.125,35.335 80.414,35.98 C 81.445,36.496 82.348,36.367 83.121,37.013 L 83.121,37.013 C 83.25,38.56 83.25,40.752 83.121,43.072 C 82.993,45.393 82.734,47.973 82.348,50.809 L 82.348,50.809 C 79.512,49.906 77.32,49.391 75.257,48.745 C 73.322,48.099 71.258,47.584 69.584,47.197 C 67.263,46.554 64.813,46.295 62.233,45.908 L 62.233,45.908 C 63.91,44.232 65.328,42.298 67.906,40.621 C 70.099,38.817 72.806,36.753 76.029,34.949 L 76.029,34.949 z "
   style="fill:#ffc080;fill-rule:evenodd;stroke:#000000;stroke-width:0.036;stroke-miterlimit:10"
   id="path89" />
	<path
   d="M 72.549,33.917 C 69.454,32.887 65.971,31.726 61.589,30.953 C 56.818,29.922 50.886,29.019 46.76,28.76 C 43.021,28.244 40.441,27.858 38.507,28.116 C 36.316,27.857 33.866,27.857 32.577,28.116 L 32.577,28.116 C 35.414,30.05 38.507,31.34 41.344,33.401 C 43.924,35.078 46.89,36.882 49.211,38.817 C 51.146,40.494 53.466,43.459 54.755,44.748 C 55.787,45.522 56.044,45.652 57.463,45.136 C 58.624,44.233 60.429,42.17 62.363,41.008 C 64.04,39.59 65.586,38.56 67.52,37.399 C 69.067,36.109 70.742,34.949 72.549,33.917 L 72.549,33.917 z "
   style="fill:#a16121;fill-rule:evenodd;stroke:#000000;stroke-width:0.036;stroke-miterlimit:10"
   id="path91" />
	<path
   d="M 30.256,29.146 C 33.479,30.693 36.445,32.371 39.152,34.176 C 41.859,35.464 44.052,37.013 46.244,38.817 C 48.179,40.622 50.112,42.686 51.531,45.006 L 51.531,45.006 C 48.951,44.877 47.147,45.006 45.599,45.392 C 44.053,45.392 43.278,46.167 42.762,47.197 C 41.73,48.229 41.474,49.777 40.958,51.841 C 40.442,53.646 40.185,55.192 40.185,57.514 L 40.185,57.514 C 38.38,55.321 36.962,52.87 35.414,51.582 C 33.866,50.164 32.19,48.488 30.9,47.973 C 29.224,46.94 27.42,46.168 25.485,45.652 L 25.485,45.652 C 25.226,40.623 25.742,37.013 26.516,34.304 C 27.161,31.339 28.579,29.791 30.256,29.146 L 30.256,29.146 z "
   style="fill:#ffc080;fill-rule:evenodd;stroke:#000000;stroke-width:0.036;stroke-miterlimit:10"
   id="path93" />
	<path
   d="M 25.485,47.843 C 27.935,48.875 30.642,50.68 33.092,52.743 C 35.542,54.806 37.733,57.642 40.184,60.738 L 40.184,60.738 C 40.184,62.672 40.313,64.347 40.57,66.282 C 40.57,67.83 40.699,69.505 40.957,71.31 L 40.957,71.31 C 38.249,73.76 36.186,75.565 34.252,77.758 C 32.189,79.692 30.772,81.497 29.481,83.173 L 29.481,83.173 C 28.063,76.856 27.29,71.698 26.644,67.185 C 25.742,62.414 25.485,59.191 25.355,56.096 C 25.099,52.743 24.969,50.164 25.485,47.843 L 25.485,47.843 z "
   style="fill:#a16121;fill-rule:evenodd;stroke:#000000;stroke-width:0.036;stroke-miterlimit:10"
   id="path95" />
	<path
   d="M 29.87,85.235 L 31.932,95.68 L 31.932,95.68 C 34.125,96.452 36.187,96.582 38.638,97.485 C 40.959,98.001 43.666,98.646 46.245,99.419 L 46.245,99.419 C 44.57,94.132 43.537,89.62 42.636,85.365 C 41.604,80.724 41.088,77.629 41.088,74.146 L 41.088,74.146 C 38.638,76.21 36.317,78.015 34.64,80.079 C 32.577,81.883 31.159,83.431 29.87,85.235 L 29.87,85.235 z "
   style="fill:#ffc080;fill-rule:evenodd;stroke:#000000;stroke-width:0.036;stroke-miterlimit:10"
   id="path97" />
	<path
   d="M 32.19,97.743 C 32.963,100.966 34.125,104.06 35.155,107.542 C 36.316,110.765 37.348,114.763 38.766,117.6 C 39.798,120.05 40.055,120.952 41.474,122.757 C 42.376,124.432 44.053,125.851 45.472,127.528 L 45.472,127.528 L 52.821,115.02 L 52.821,115.02 C 51.145,112.699 50.113,110.122 49.211,108.315 C 48.18,105.995 47.276,104.446 47.018,102.642 L 47.018,102.642 C 44.956,102.126 42.893,101.483 40.315,100.707 C 37.734,99.677 35.027,99.032 32.19,97.743 L 32.19,97.743 z "
   style="fill:#a16121;fill-rule:evenodd;stroke:#000000;stroke-width:0.036;stroke-miterlimit:10"
   id="path99" />
	<path
   d="M 54.754,116.182 C 55.141,116.826 56.689,117.47 58.363,117.6 C 59.912,117.729 62.618,117.729 65.455,117.6 L 65.455,117.6 C 64.295,119.404 63.393,121.339 62.748,123.402 C 61.846,125.078 61.589,126.883 61.459,128.817 L 61.459,128.817 C 59.655,129.849 57.848,130.366 55.527,130.366 C 53.206,130.107 50.37,129.72 47.533,128.689 L 47.533,128.689 C 50.113,124.434 51.788,121.726 53.079,119.535 C 54.367,117.213 54.754,116.438 54.754,116.182 L 54.754,116.182 z "
   style="fill:#ffc080;fill-rule:evenodd;stroke:#000000;stroke-width:0.036;stroke-miterlimit:10"
   id="path101" />
	<path
   d="M 66.746,114.763 C 63.523,115.02 60.557,114.89 58.363,113.86 C 56.172,112.699 54.624,112.053 53.206,108.96 C 51.272,105.091 48.565,99.289 47.147,93.488 C 45.342,87.169 43.665,80.723 43.151,74.145 C 42.119,67.054 42.247,58.932 43.022,54.289 C 43.794,49.906 45.085,48.874 48.309,48.229 C 51.273,47.197 55.271,47.197 60.815,48.229 C 66.102,48.875 73.966,51.065 80.415,53.259 C 86.99,55.192 93.566,58.803 98.208,61.124 C 101.948,62.671 101.689,63.96 103.881,65.508 C 105.814,66.926 107.621,68.473 109.813,70.15 L 109.813,70.15 C 103.881,73.374 99.111,76.983 94.081,80.465 C 89.053,83.946 84.798,86.653 80.801,91.038 C 76.675,95.293 72.55,100.322 70.356,104.706 C 68.165,108.574 66.487,111.927 66.746,114.763 L 66.746,114.763 z "
   style="fill:#a16121;fill-rule:evenodd;stroke:#000000;stroke-width:0.036;stroke-miterlimit:10"
   id="path103" />
	<path
   d="M 95.758,41.524 C 96.401,39.849 97.176,38.56 98.594,37.141 C 99.367,35.334 100.915,33.66 101.818,33.143 C 102.204,32.37 103.88,33.143 103.88,33.916 C 104.139,34.175 103.363,34.432 102.59,36.625 C 101.172,38.687 98.078,44.619 96.788,46.424 C 95.37,47.842 94.596,45.392 94.466,45.006 C 94.081,43.974 94.854,42.814 95.758,41.524 L 95.758,41.524 z "
   style="fill-rule:evenodd;stroke:#000000;stroke-width:0.036;stroke-miterlimit:10"
   id="path105" />
	<path
   d="M 102.074,43.329 C 102.849,42.17 104.783,41.137 106.329,40.235 C 107.747,39.074 109.555,37.527 110.714,37.527 C 111.746,37.398 112.132,38.043 112.391,38.945 C 112.132,39.332 111.875,39.332 110.198,41.007 C 107.878,42.555 103.237,46.939 101.302,48.228 C 99.496,48.744 99.11,46.68 99.625,46.037 C 99.625,45.006 100.786,44.104 102.074,43.329 L 102.074,43.329 z "
   style="fill-rule:evenodd;stroke:#000000;stroke-width:0.036;stroke-miterlimit:10"
   id="path107" />
	<path
   d="M 26.387,70.922 C 25.098,71.309 23.937,71.825 22.906,72.986 C 21.23,74.017 19.296,75.822 18.135,76.854 C 16.717,77.37 15.298,77.241 15.944,76.468 C 16.073,75.177 19.167,72.084 21.23,70.665 C 23.165,68.86 26.903,67.183 28.451,67.054 C 29.481,66.797 29.869,68.601 29.611,69.504 C 28.708,70.149 27.806,70.149 26.387,70.922 L 26.387,70.922 z "
   style="fill-rule:evenodd;stroke:#000000;stroke-width:0.036;stroke-miterlimit:10"
   id="path109" />
	<path
   d="M 30.643,75.05 C 29.482,75.436 28.452,76.08 27.547,76.982 C 25.872,77.498 24.454,79.948 23.292,80.335 C 21.874,80.724 21.101,80.594 21.487,79.948 C 21.616,78.53 24.324,76.339 26.128,74.921 C 28.192,72.986 30.642,72.084 32.447,71.697 C 33.349,71.568 33.865,73.115 33.479,73.888 C 32.706,74.404 31.931,74.146 30.643,75.05 L 30.643,75.05 z "
   style="fill-rule:evenodd;stroke:#000000;stroke-width:0.036;stroke-miterlimit:10"
   id="path111" />
	<path
   d="M 41.216,121.855 C 39.925,122.757 38.379,123.789 37.088,124.948 C 35.154,125.723 33.865,127.269 32.706,127.657 C 31.288,127.528 30.9,126.883 31.029,126.239 C 30.642,125.465 31.158,125.594 33.092,124.176 C 34.897,122.241 40.054,117.987 42.118,116.955 C 43.277,116.052 43.793,118.116 43.664,119.148 C 43.407,119.92 42.119,120.823 41.216,121.855 L 41.216,121.855 z "
   style="fill-rule:evenodd;stroke:#000000;stroke-width:0.036;stroke-miterlimit:10"
   id="path113" />
	<path
   d="M 172.219,53.259 C 164.224,54.419 158.68,55.064 152.621,55.708 C 146.432,55.837 142.046,55.192 135.471,55.708 C 127.993,55.837 119.482,55.321 110.972,58.158 C 102.462,60.866 92.406,67.055 86.217,72.212 C 80.028,76.855 76.932,79.949 72.936,87.041 C 68.165,94.133 63.911,104.061 60.172,114.377 C 55.528,124.433 52.435,135.006 49.468,146.612 C 46.374,157.57 44.57,168.789 44.57,180.265 C 44.441,191.612 45.988,203.345 50.243,214.434 C 54.368,225.265 58.623,235.709 69.97,244.347 C 81.06,252.213 100.787,258.918 116.646,262.916 C 132.119,266.655 145.4,267.044 163.969,267.558 C 182.536,267.817 206.648,267.299 226.89,264.078 C 246.746,260.08 268.537,253.893 283.365,245.509 C 297.937,236.87 306.317,224.491 314.054,213.274 C 321.273,201.541 325.401,189.292 328.496,176.525 C 331.331,163.503 334.683,150.351 333.007,137.07 C 331.074,123.53 326.303,109.09 318.695,97.227 C 310.702,85.235 300.383,74.534 287.232,66.538 C 273.823,57.901 254.353,52.098 239.783,49.132 C 225.085,45.909 210.512,48.229 199.555,49.132 C 188.08,49.518 179.956,52.228 172.219,53.259 L 172.219,53.259 z "
   style="fill-rule:evenodd;stroke:#000000;stroke-width:0.036;stroke-miterlimit:10"
   id="path115" />
	<path
   d="M 78.608,83.56 C 77.576,84.333 76.931,85.364 76.158,86.653 C 75.386,87.685 74.481,89.36 73.965,91.167 L 73.965,91.167 C 75.513,93.616 77.706,97.227 81.059,100.58 C 84.282,103.803 91.373,109.347 93.437,112.184 C 95.113,114.764 92.791,115.795 90.471,117.342 C 87.505,118.503 82.734,119.921 77.576,121.081 C 72.289,122.113 66.1,123.274 59.008,124.562 L 59.008,124.562 C 58.621,125.208 58.106,126.626 57.461,128.302 C 56.817,130.107 55.915,132.17 55.27,135.007 L 55.27,135.007 C 57.848,137.199 60.557,139.778 63.91,141.713 C 66.746,143.904 70.743,145.452 74.354,147.386 C 78.093,148.804 83.38,149.449 85.185,151.255 C 86.474,152.673 85.314,154.221 81.703,157.314 C 77.32,160.667 66.488,165.824 60.687,169.822 C 54.755,173.302 50.759,176.398 47.663,178.589 L 47.663,178.589 C 47.276,179.235 47.148,180.266 47.276,181.169 C 47.148,182.071 47.406,183.36 47.533,184.521 L 47.533,184.521 C 52.047,186.842 56.689,188.131 61.975,189.42 C 67.003,190.065 73.322,190.581 78.479,190.967 C 83.379,191.353 89.955,191.353 91.76,192.901 C 92.791,194.19 89.569,197.026 87.634,199.993 C 85.829,202.573 84.023,204.505 80.671,210.308 C 76.674,216.111 71.387,223.975 64.296,234.419 L 64.296,234.419 C 64.812,235.321 65.585,236.353 66.617,237.515 C 67.39,238.417 68.551,239.449 69.583,240.608 L 69.583,240.608 C 76.416,239.706 82.734,238.417 89.053,236.226 C 95.37,234.033 101.689,230.164 106.46,228.103 C 110.329,225.782 112.778,222.3 114.84,222.686 C 116.388,222.686 117.291,224.75 118.968,229.392 C 120.772,233.777 123.223,243.189 125.801,249.122 C 127.864,254.666 129.67,258.919 131.733,262.403 L 131.733,262.403 C 133.279,262.917 134.57,263.305 137.021,263.56 C 138.825,263.819 141.791,263.819 144.499,264.078 L 144.499,264.078 C 147.979,261.113 150.946,257.502 153.911,253.246 C 156.748,248.734 159.068,240.867 161.389,238.03 C 163.324,234.807 164.097,234.935 166.16,235.451 C 167.578,235.838 168.996,237.771 172.479,240.738 C 175.959,243.703 182.536,249.251 187.693,253.375 C 192.85,257.373 197.234,260.339 202.392,263.689 L 202.392,263.689 C 203.81,263.819 205.872,263.305 209.098,263.175 C 212.192,262.787 215.931,262.273 220.829,261.626 L 220.829,261.626 C 222.12,256.6 223.409,251.828 224.183,246.797 C 224.568,241.51 224.697,234.807 225.6,231.582 C 226.246,228.617 226.89,227.07 229.468,227.457 C 231.791,227.457 234.368,228.875 240.686,231.196 C 246.747,233.26 259.899,236.483 266.733,238.933 C 273.309,240.995 278.08,242.026 281.046,243.058 L 281.046,243.058 C 281.176,242.929 281.819,242.156 282.981,241.769 C 284.013,240.866 285.171,240.351 286.978,239.189 L 286.978,239.189 C 285.689,234.807 283.366,230.036 281.431,223.46 C 278.724,216.626 274.986,205.794 273.698,200.895 C 272.537,195.866 272.408,194.062 273.825,193.416 C 274.855,192.255 277.307,193.416 281.177,194.964 C 285.172,195.994 290.072,198.703 296.391,200.637 C 302.195,202.442 308.124,203.601 315.217,205.149 L 315.217,205.149 C 316.504,203.085 317.795,200.894 318.567,198.573 C 319.34,195.993 320.118,193.286 320.374,190.449 L 320.374,190.449 C 313.797,185.292 307.995,180.263 302.451,175.364 C 296.522,170.206 289.17,163.631 287.364,160.535 C 285.56,156.796 288.396,156.926 291.877,156.022 C 294.973,155.248 301.034,156.28 306.061,156.15 C 310.576,156.022 315.477,154.345 319.731,154.088 C 323.728,153.313 327.079,152.67 330.304,152.153 L 330.304,152.153 C 330.817,148.93 331.205,145.448 330.947,142.225 C 330.563,138.873 329.531,135.263 328.37,131.91 L 328.37,131.91 C 321.151,130.749 315.219,129.976 310.576,128.558 C 305.548,127.267 301.29,125.721 299.875,123.915 C 298.327,121.466 300.003,119.273 302.452,114.374 C 304.774,109.215 307.996,102.769 313.154,94.518 L 313.154,94.518 C 312.382,92.97 311.734,92.195 311.221,91.165 C 310.575,90.004 309.673,89.618 309.028,88.973 L 309.028,88.973 C 307.739,91.165 304.515,92.971 298.327,93.873 C 291.878,94.519 277.694,95.549 272.669,95.033 C 267.38,94.003 268.153,93.099 268.026,89.876 C 267.767,86.652 270.604,80.464 271.636,76.209 C 272.538,71.825 273.441,66.796 273.826,62.542 L 273.826,62.542 C 273.053,62.156 272.668,61.124 271.636,60.865 C 270.863,60.221 269.443,59.705 268.411,59.319 L 268.411,59.319 C 261.835,62.929 255.517,66.024 249.974,69.118 C 244.042,72.211 238.753,75.823 234.629,77.498 C 230.371,78.789 227.406,79.305 225.731,77.498 C 223.284,74.79 224.444,69.633 222.765,64.992 C 220.959,60.35 219.156,55.45 216.319,50.293 L 216.319,50.293 L 210.645,50.937 L 210.645,50.937 C 208.068,53.903 205.617,57.126 203.296,60.608 C 200.717,63.831 198.266,67.442 196.462,70.922 C 194.142,74.275 192.982,79.175 191.434,81.109 C 189.757,82.655 188.339,82.398 186.664,80.335 C 184.599,77.628 181.376,69.504 179.056,65.895 C 176.348,61.897 172.867,58.158 171.062,57.643 C 168.869,56.74 169.385,57.386 167.709,61.124 C 165.903,64.477 162.552,73.889 160.617,78.403 C 158.424,82.27 156.49,85.365 154.814,86.138 C 152.879,86.524 152.751,84.72 150.43,81.754 C 147.722,78.274 143.081,71.31 139.47,67.314 C 135.601,63.189 131.862,60.609 128.253,58.545 L 128.253,58.545 C 125.417,58.288 121.934,58.288 118.841,59.061 C 115.617,59.577 111.749,60.609 108.266,62.157 L 108.266,62.157 C 108.652,66.412 108.782,70.796 110.071,75.308 C 110.587,79.692 114.586,85.495 114.07,88.719 C 113.682,91.426 111.103,92.715 107.75,92.587 C 104.011,91.813 96.018,87.944 92.279,86.398 C 88.153,84.98 86.09,84.205 84.026,84.077 C 81.702,83.431 79.897,83.431 78.608,83.56 L 78.608,83.56 z "
   style="fill:#ffc080;fill-rule:evenodd"
   id="path117" />
	<path
   d="M 149.396,98.773 C 149.269,96.71 151.847,94.777 153.136,92.972 C 154.426,91.037 155.328,89.749 157.779,88.588 C 159.841,87.299 163.838,85.235 165.773,85.364 C 167.32,84.978 168.48,86.782 167.835,87.815 C 166.806,88.588 162.162,89.104 160.357,90.779 C 158.422,92.071 156.231,94.52 155.2,96.582 C 153.394,98.517 153.394,101.353 152.233,102.126 C 151.073,102.125 149.138,100.193 149.396,98.773 L 149.396,98.773 z "
   style="fill-rule:evenodd;stroke:#000000;stroke-width:0.036;stroke-miterlimit:10"
   id="path119" />
	<path
   d="M 216.96,102.255 C 216.831,100.321 214.254,97.743 213.222,95.937 C 211.544,93.874 210.642,92.456 208.58,91.167 C 206.26,89.749 202.262,87.556 200.585,87.556 C 198.652,87.169 197.62,89.233 198.522,90.264 C 199.167,91.295 203.809,91.554 206.001,93.489 C 208.064,95.164 209.609,97.485 211.158,99.935 C 212.446,101.87 212.963,105.351 214.254,105.867 C 215.284,105.737 216.702,104.189 216.96,102.255 L 216.96,102.255 z "
   style="fill-rule:evenodd;stroke:#000000;stroke-width:0.036;stroke-miterlimit:10"
   id="path121" />
	<path
   d="M 145.271,105.479 C 145.271,106.769 146.432,107.672 147.978,107.672 C 149.396,107.672 150.687,106.769 150.687,105.479 C 150.687,104.319 149.396,103.288 147.978,103.288 C 146.432,103.287 145.271,104.319 145.271,105.479 L 145.271,105.479 z "
   style="fill-rule:evenodd;stroke:#000000;stroke-width:0.036;stroke-miterlimit:10"
   id="path123" />
	<path
   d="M 212.447,110.25 C 212.447,111.411 213.609,112.443 215.028,112.443 C 216.575,112.443 217.734,111.411 217.734,110.25 C 217.734,108.961 216.575,108.058 215.028,108.058 C 213.609,108.058 212.447,108.96 212.447,110.25 L 212.447,110.25 z "
   style="fill-rule:evenodd;stroke:#000000;stroke-width:0.036;stroke-miterlimit:10"
   id="path125" />
	<path
   d="M 185.243,106.769 C 185.243,111.282 189.498,114.891 194.784,114.891 C 200.07,114.891 204.453,111.282 204.453,106.769 C 204.453,102.255 200.069,98.646 194.784,98.646 C 189.498,98.646 185.243,102.255 185.243,106.769 L 185.243,106.769 z "
   style="fill-rule:evenodd;stroke:#000000;stroke-width:0.036;stroke-miterlimit:10"
   id="path127" />
	<path
   d="M 191.302,103.932 C 191.302,105.092 192.463,106.124 194.008,106.124 C 195.426,106.124 196.589,105.092 196.589,103.932 C 196.589,102.771 195.426,101.74 194.008,101.74 C 192.463,101.74 191.302,102.771 191.302,103.932 L 191.302,103.932 z "
   style="fill:#ffffff;fill-rule:evenodd;stroke:#000000;stroke-width:0.036;stroke-miterlimit:10"
   id="path129" />
	<path
   d="M 159.066,101.869 C 159.066,106.381 163.321,109.992 168.608,109.992 C 173.895,109.992 178.15,106.381 178.15,101.869 C 178.15,97.356 173.895,93.745 168.608,93.745 C 163.321,93.745 159.066,97.356 159.066,101.869 L 159.066,101.869 z "
   style="fill-rule:evenodd;stroke:#000000;stroke-width:0.036;stroke-miterlimit:10"
   id="path131" />
	<path
   d="M 165.386,99.032 C 165.386,100.321 166.545,101.223 167.964,101.223 C 169.383,101.223 170.544,100.321 170.544,99.032 C 170.544,97.87 169.383,96.84 167.964,96.84 C 166.545,96.84 165.386,97.871 165.386,99.032 L 165.386,99.032 z "
   style="fill:#ffffff;fill-rule:evenodd;stroke:#000000;stroke-width:0.036;stroke-miterlimit:10"
   id="path133" />
	<path
   d="M 77.19,85.235 C 76.545,83.688 76.158,80.594 76.029,78.917 C 75.642,76.596 74.998,73.888 75.513,72.728 C 75.9,71.439 77.061,71.052 77.964,71.568 C 78.093,71.825 78.48,71.825 79.125,75.05 C 79.641,77.757 81.961,86.267 82.089,88.717 C 81.702,91.037 79.641,89.619 78.866,89.36 C 77.834,88.458 77.447,86.912 77.19,85.235 L 77.19,85.235 z "
   style="fill-rule:evenodd;stroke:#000000;stroke-width:0.036;stroke-miterlimit:10"
   id="path135" />
	<path
   d="M 72.29,89.62 C 71.387,87.943 70.355,85.494 69.712,83.817 C 68.68,81.754 67.905,78.917 67.905,77.757 C 67.777,76.339 69.323,75.822 70.098,76.209 C 70.484,76.209 70.613,76.595 71.902,79.305 C 73.32,82.141 77.189,89.233 77.962,92.07 C 78.348,94.132 75.641,93.874 74.868,93.359 C 73.965,92.585 72.935,91.167 72.29,89.62 L 72.29,89.62 z "
   style="fill-rule:evenodd;stroke:#000000;stroke-width:0.036;stroke-miterlimit:10"
   id="path137" />
	<path
   d="M 106.459,62.799 C 103.88,63.574 101.172,65.122 98.335,66.926 C 94.854,68.344 91.63,71.438 88.666,73.759 C 85.7,75.952 83.25,78.53 81.315,80.98 L 81.315,80.98 C 84.925,81.883 88.277,83.044 92.405,84.462 C 96.53,85.751 101.043,87.942 104.524,88.974 C 107.104,89.876 109.038,89.876 110.328,89.49 C 111.359,89.233 111.746,87.942 111.486,86.137 C 110.843,83.43 109.038,78.53 108.135,75.435 C 106.975,72.083 106.329,68.73 106.2,66.925 C 106.073,64.863 105.686,63.315 106.459,62.799 L 106.459,62.799 z "
   style="fill:#a16121;fill-rule:evenodd;stroke:#000000;stroke-width:0.036;stroke-miterlimit:10"
   id="path139" />
	<path
   d="M 72.549,92.327 C 74.094,95.423 75.513,97.871 77.32,100.194 C 78.996,102.126 80.414,103.288 82.605,105.222 C 84.41,106.769 87.505,108.445 88.924,110.25 C 90.084,111.668 90.859,112.959 90.213,114.118 C 88.795,114.891 86.733,115.795 84.024,116.826 C 81.06,117.857 78.609,118.244 74.612,119.405 C 70.357,120.178 65.715,121.081 59.656,122.113 L 59.656,122.113 C 61.46,116.44 63.652,111.412 65.715,106.511 C 67.778,101.353 70.226,96.968 72.549,92.327 L 72.549,92.327 z "
   style="fill:#a16121;fill-rule:evenodd;stroke:#000000;stroke-width:0.036;stroke-miterlimit:10"
   id="path141" />
	<path
   d="M 54.625,137.457 C 56.173,139.262 57.849,140.422 60.171,142.357 C 62.362,144.162 64.682,145.322 67.649,147.255 C 70.356,148.417 73.322,149.964 76.029,150.867 C 78.479,151.254 80.284,151.769 81.445,152.413 C 82.218,152.929 82.218,153.058 80.414,154.863 C 77.834,156.54 71.774,159.893 68.165,162.471 C 64.553,164.405 61.717,165.566 58.623,167.887 C 55.142,169.949 51.532,172.529 47.792,175.622 L 47.792,175.622 C 47.276,171.24 47.406,166.082 48.694,159.634 C 49.854,153.187 51.661,145.967 54.625,137.457 L 54.625,137.457 z "
   style="fill:#a16121;fill-rule:evenodd;stroke:#000000;stroke-width:0.036;stroke-miterlimit:10"
   id="path143" />
	<path
   d="M 47.406,187.227 C 48.694,187.873 51.531,189.291 54.498,190.063 C 57.334,190.709 62.233,192.127 66.23,192.771 C 69.839,193.158 73.709,192.771 77.319,193.158 C 81.059,193.158 85.699,192.901 87.762,193.804 C 89.053,194.19 88.666,194.577 87.118,196.899 C 85.57,199.348 82.089,203.345 79.64,207.471 C 76.931,210.567 74.997,214.176 72.419,218.302 C 69.324,222.43 66.616,227.071 62.877,232.744 L 62.877,232.744 C 60.427,229.134 57.72,225.523 55.785,220.882 C 53.722,216.111 50.757,211.21 49.853,205.666 C 48.565,199.862 47.406,194.062 47.406,187.227 L 47.406,187.227 z "
   style="fill:#a16121;fill-rule:evenodd;stroke:#000000;stroke-width:0.036;stroke-miterlimit:10"
   id="path145" />
	<path
   d="M 72.29,242.671 C 74.74,242.284 77.834,242.284 81.573,241.253 C 84.798,240.092 90.083,238.803 93.952,237.385 C 97.564,235.58 101.173,233.646 104.268,232.097 C 107.105,230.163 109.297,228.745 111.36,227.842 C 112.52,226.811 113.68,225.908 114.324,226.167 C 114.97,226.167 115.742,225.78 116.646,227.972 C 117.421,229.906 118.323,234.933 119.354,238.545 C 119.998,241.639 121.416,245.12 122.191,247.959 C 122.964,250.152 122.964,252.601 124.253,254.793 C 125.285,256.982 126.446,259.564 128.252,262.013 L 128.252,262.013 C 121.161,260.596 114.713,259.564 108.912,257.885 C 102.723,256.469 98.853,254.923 92.793,252.73 C 86.603,250.024 79.768,246.667 72.29,242.671 L 72.29,242.671 z "
   style="fill:#a16121;fill-rule:evenodd;stroke:#000000;stroke-width:0.036;stroke-miterlimit:10"
   id="path147" />
	<path
   d="M 148.236,264.462 C 149.912,262.528 152.362,260.597 154.167,257.631 C 155.844,254.795 158.295,250.409 159.969,247.443 C 161.387,243.961 162.161,240.481 163.709,238.933 C 164.611,237.515 165.772,237.385 167.707,239.062 C 169.642,239.964 172.219,244.862 175.442,247.313 C 178.407,249.635 181.76,252.343 184.984,254.406 C 187.692,256.341 190.143,258.275 192.335,259.695 C 194.268,261.112 195.943,262.403 197.362,263.56 L 197.362,263.56 C 194.139,263.949 190.529,263.689 185.499,264.207 C 180.084,264.592 174.152,264.337 167.707,264.851 C 161.387,264.851 155.069,264.722 148.236,264.462 L 148.236,264.462 z "
   style="fill:#a16121;fill-rule:evenodd;stroke:#000000;stroke-width:0.036;stroke-miterlimit:10"
   id="path149" />
	<path
   d="M 224.311,261.24 C 225.343,257.113 226.76,252.731 227.148,248.089 C 227.148,242.928 226.76,235.709 227.533,232.872 C 228.306,230.163 229.468,230.163 232.562,230.938 C 235.399,231.065 239.138,233.259 244.298,235.064 C 249.582,236.611 256.546,238.545 262.735,240.35 C 268.278,241.896 273.308,243.187 277.82,244.735 L 277.82,244.735 C 272.535,247.571 267.12,250.153 261.573,252.471 C 255.644,254.406 250.1,256.728 243.909,258.015 C 237.722,259.177 231.017,260.723 224.311,261.24 L 224.311,261.24 z "
   style="fill:#a16121;fill-rule:evenodd;stroke:#000000;stroke-width:0.036;stroke-miterlimit:10"
   id="path151" />
	<path
   d="M 313.665,207.47 C 312.248,207.083 309.926,207.083 306.705,206.052 C 303.479,204.893 298.195,203.474 294.326,202.313 C 289.684,200.766 284.655,198.831 281.688,198.058 C 278.466,196.382 277.177,195.737 276.404,195.607 C 275.371,195.351 275.243,195.866 276.014,198.703 C 276.66,201.41 278.466,206.568 280.401,211.725 C 282.077,216.239 283.881,223.587 285.816,227.842 C 287.361,232.097 288.393,235.321 289.425,237.514 L 289.425,237.514 C 292.905,234.29 296.775,230.938 299.612,227.972 C 302.448,224.619 305.285,222.04 307.607,218.816 C 309.8,215.594 311.989,211.338 313.665,207.47 L 313.665,207.47 z "
   style="fill:#a16121;fill-rule:evenodd;stroke:#000000;stroke-width:0.036;stroke-miterlimit:10"
   id="path153" />
	<path
   d="M 329.911,154.733 C 327.464,155.249 324.497,155.894 320.499,156.668 C 316.246,157.313 310.313,157.699 306.187,158.345 C 301.674,158.216 297.677,158.216 295.228,158.345 C 292.391,158.086 290.842,158.086 290.586,158.861 C 290.068,159.634 290.971,160.407 293.293,163.116 C 295.228,165.437 299.611,168.789 304.381,173.174 C 309.282,177.429 314.57,181.812 321.789,187.744 L 321.789,187.744 C 323.852,181.168 325.658,175.752 327.204,170.078 C 328.366,164.275 329.268,159.634 329.911,154.733 L 329.911,154.733 z "
   style="fill:#a16121;fill-rule:evenodd;stroke:#000000;stroke-width:0.036;stroke-miterlimit:10"
   id="path155" />
	<path
   d="M 315.343,95.937 C 313.021,99.805 310.958,103.03 309.152,107.026 C 307.089,110.378 305.285,115.149 304.253,117.856 C 302.836,120.177 301.934,121.596 302.577,122.627 C 303.221,123.529 305.414,124.175 308.64,125.077 C 311.477,125.723 317.535,127.141 320.889,127.914 C 323.984,128.687 326.562,128.43 328.108,128.56 L 328.108,128.56 C 326.947,122.241 324.756,116.438 322.952,111.152 C 320.499,105.608 318.436,100.707 315.343,95.937 L 315.343,95.937 z "
   style="fill:#a16121;fill-rule:evenodd;stroke:#000000;stroke-width:0.036;stroke-miterlimit:10"
   id="path157" />
	<path
   d="M 277.046,63.574 C 276.403,66.926 275.501,70.407 274.853,74.017 C 273.696,77.498 272.793,80.979 272.147,83.946 C 271.245,86.396 269.957,88.845 270.73,90.263 C 270.986,91.681 272.017,92.585 275.371,92.971 C 278.723,92.971 285.816,92.325 290.198,92.069 C 293.808,91.68 296.775,91.68 299.612,91.036 C 302.318,90.134 304.899,88.586 307.348,86.911 L 307.348,86.911 C 303.094,82.527 298.707,78.401 293.682,74.533 C 288.265,70.407 283.238,66.926 277.046,63.574 L 277.046,63.574 z "
   style="fill:#a16121;fill-rule:evenodd;stroke:#000000;stroke-width:0.036;stroke-miterlimit:10"
   id="path159" />
	<path
   d="M 219.153,49.906 C 220.829,51.582 221.989,54.031 223.15,56.223 C 224.052,58.286 224.182,60.994 225.085,63.83 C 225.6,66.667 225.858,70.922 226.89,73.115 C 227.405,75.177 228.437,75.951 230.5,75.951 C 232.563,75.563 235.271,73.758 239.139,71.953 C 242.748,69.889 247.908,66.28 252.678,64.088 C 256.932,61.509 261.448,60.09 265.7,58.415 L 265.7,58.415 C 256.158,55.32 248.293,53.128 242.105,51.84 C 235.788,50.679 231.791,50.163 228.18,50.292 C 224.182,49.906 221.346,49.777 219.153,49.906 L 219.153,49.906 z "
   style="fill:#a16121;fill-rule:evenodd;stroke:#000000;stroke-width:0.036;stroke-miterlimit:10"
   id="path161" />
	<path
   d="M 207.675,51.195 C 206.387,50.809 203.55,51.195 197.62,51.841 C 191.688,52.484 183.694,53.903 173.121,55.58 L 173.121,55.58 C 176.345,58.287 178.665,60.738 180.6,63.445 C 182.018,65.636 182.662,68.086 184.08,70.795 C 185.243,73.116 186.788,78.273 188.208,79.305 C 188.981,79.948 189.884,78.917 191.431,76.209 C 192.849,73.115 196.074,65.894 198.137,62.542 C 199.813,59.319 201.231,58.157 202.907,56.609 C 204.196,54.677 206.26,52.871 207.675,51.195 L 207.675,51.195 z "
   style="fill:#a16121;fill-rule:evenodd;stroke:#000000;stroke-width:0.036;stroke-miterlimit:10"
   id="path163" />
	<path
   d="M 132.892,58.287 C 134.696,58.158 137.02,58.158 139.856,58.287 C 142.304,58.158 145.271,58.416 148.752,58.544 C 151.716,58.157 155.069,58.028 158.294,57.642 C 161.386,57.126 164.61,56.739 167.963,56.482 L 167.963,56.482 C 166.157,59.189 164.61,63.057 162.804,66.667 C 160.871,70.536 158.549,75.822 157.389,79.046 C 156.228,81.625 155.326,82.914 154.681,82.914 C 153.522,82.527 152.746,81.109 150.942,78.659 C 148.75,75.435 145.011,70.406 142.175,67.054 C 138.951,63.701 135.857,60.608 132.892,58.287 L 132.892,58.287 z "
   style="fill:#a16121;fill-rule:evenodd;stroke:#000000;stroke-width:0.036;stroke-miterlimit:10"
   id="path165" />
	<path
   d="M 48.179,152.671 C 46.244,151.509 43.151,149.705 41.344,148.287 C 39.024,146.611 35.801,144.677 35.156,143.516 C 34.383,142.098 35.156,140.679 36.447,140.808 C 36.963,140.549 37.35,140.808 40.572,142.999 C 43.666,144.804 53.466,149.963 56.044,152.025 C 57.849,153.83 54.884,154.605 53.595,154.862 C 52.304,154.605 49.854,153.703 48.179,152.671 L 48.179,152.671 z "
   style="fill-rule:evenodd;stroke:#000000;stroke-width:0.036;stroke-miterlimit:10"
   id="path167" />
	<path
   d="M 50.37,145.064 C 48.566,143.903 47.147,142.873 45.599,141.968 C 43.924,140.938 41.86,139.132 41.344,138.616 C 40.572,137.713 41.344,136.424 42.119,136.681 C 42.635,136.294 42.635,136.81 45.085,138.229 C 47.406,139.52 53.982,143 55.916,144.676 C 57.205,145.836 55.141,146.481 54.239,146.611 C 53.079,146.611 51.788,145.451 50.37,145.064 L 50.37,145.064 z "
   style="fill-rule:evenodd;stroke:#000000;stroke-width:0.036;stroke-miterlimit:10"
   id="path169" />
	<path
   d="M 108.78,259.565 C 106.976,260.981 104.911,263.559 103.107,265.368 C 100.916,266.914 98.466,269.75 97.176,270.394 C 95.499,270.653 94.727,269.362 94.854,268.589 C 94.597,267.557 95.37,267.687 97.691,264.98 C 100.14,261.884 107.362,253.374 109.941,251.828 C 112.003,250.279 112.261,253.116 112.133,254.794 C 111.486,256.082 110.198,257.501 108.78,259.565 L 108.78,259.565 z "
   style="fill-rule:evenodd;stroke:#000000;stroke-width:0.036;stroke-miterlimit:10"
   id="path171" />
	<path
   d="M 101.818,255.827 C 100.656,257.114 98.851,258.275 97.819,259.821 C 96.145,260.853 94.596,262.657 93.694,263.305 C 92.662,263.434 91.76,262.529 92.017,262.014 C 92.017,261.37 92.017,261.24 94.08,259.565 C 95.884,257.372 100.399,251.31 102.59,250.279 C 103.751,249.376 104.267,250.926 104.139,252.471 C 103.88,253.504 102.462,254.277 101.818,255.827 L 101.818,255.827 z "
   style="fill-rule:evenodd;stroke:#000000;stroke-width:0.036;stroke-miterlimit:10"
   id="path173" />
	<path
   d="M 207.419,259.565 C 207.936,260.981 208.708,263.559 209.224,265.753 C 209.61,267.688 210.385,270.524 210.512,271.815 C 209.868,272.846 208.967,272.976 208.322,272.717 C 207.936,272.07 207.29,271.944 206.904,269.363 C 205.486,266.526 202.649,257.887 202.391,255.827 C 202.004,253.504 204.326,254.536 205.355,255.439 C 206.13,255.953 206.646,257.501 207.419,259.565 L 207.419,259.565 z "
   style="fill-rule:evenodd;stroke:#000000;stroke-width:0.036;stroke-miterlimit:10"
   id="path175" />
	<path
   d="M 200.069,260.209 C 200.457,261.626 200.585,263.818 200.973,265.753 C 200.844,267.299 201.489,270.14 201.359,271.297 C 200.586,272.199 199.941,272.199 199.426,271.815 C 198.91,271.297 198.78,270.913 198.523,268.59 C 197.492,265.623 196.202,258.404 196.074,256.341 C 195.944,253.892 198.009,255.697 198.781,256.341 C 199.296,256.729 199.555,258.663 200.069,260.209 L 200.069,260.209 z "
   style="fill-rule:evenodd;stroke:#000000;stroke-width:0.036;stroke-miterlimit:10"
   id="path177" />
	<path
   d="M 302.707,225.522 C 303.868,225.909 305.285,226.811 306.959,228.229 C 308.64,229.647 311.087,231.97 312.892,233.13 C 314.054,233.905 316.118,233.776 315.6,232.743 C 314.698,231.325 311.861,227.199 309.153,225.392 C 306.058,222.943 302.063,221.01 300.131,220.621 C 298.196,219.977 298.196,222.813 298.709,223.717 C 299.225,224.49 300.901,224.62 302.707,225.522 L 302.707,225.522 z "
   style="fill-rule:evenodd;stroke:#000000;stroke-width:0.036;stroke-miterlimit:10"
   id="path179" />
	<path
   d="M 297.292,230.679 C 298.063,231.195 299.48,231.841 301.03,233.13 C 302.317,234.291 304.898,236.225 306.315,237.385 C 307.606,237.901 308.892,237.771 308.638,236.998 C 307.865,235.709 305.154,232.227 302.964,230.55 C 300.641,228.358 296.518,226.811 295.098,226.425 C 293.422,226.038 293.163,228.102 293.807,229.133 C 294.067,229.777 295.871,229.647 297.292,230.679 L 297.292,230.679 z "
   style="fill-rule:evenodd;stroke:#000000;stroke-width:0.036;stroke-miterlimit:10"
   id="path181" />
	<path
   d="M 322.692,108.703 C 324.109,107.928 326.69,107.413 328.88,107.156 C 330.687,106.64 333.909,105.738 335.07,106.381 C 335.842,106.64 336.616,107.543 335.972,108.574 C 335.454,108.703 335.07,109.09 332.362,109.734 C 328.88,110.122 321.146,113.346 318.563,113.475 C 315.986,113.215 317.792,111.411 318.435,110.509 C 318.823,109.476 320.757,109.217 322.692,108.703 L 322.692,108.703 z "
   style="fill-rule:evenodd;stroke:#000000;stroke-width:0.036;stroke-miterlimit:10"
   id="path183" />
	<path
   d="M 322.822,116.052 C 324.238,115.666 326.302,115.666 328.496,115.536 C 330.042,115.279 332.878,114.763 334.039,115.407 C 334.683,115.666 334.812,116.698 334.428,117.47 C 333.91,117.857 333.522,117.6 331.202,118.116 C 328.366,118.244 320.758,119.792 318.823,119.792 C 316.89,119.663 317.922,117.471 318.954,117.214 C 319.597,116.568 320.888,116.182 322.822,116.052 L 322.822,116.052 z "
   style="fill-rule:evenodd;stroke:#000000;stroke-width:0.036;stroke-miterlimit:10"
   id="path185" />
	<path
   d="M 123.996,165.437 C 116.517,164.275 99.111,163.502 85.7,162.084 C 71.904,160.149 54.625,156.023 43.794,154.605 C 33.22,152.671 26.387,151.896 22.776,151.768 C 18.78,151.382 18.78,153.573 19.812,154.346 C 19.94,154.605 21.617,154.992 26.774,156.023 C 32.318,157.183 40.958,158.086 51.661,160.149 C 61.846,161.696 76.288,165.049 87.505,166.725 C 97.95,168.143 109.297,168.529 116.002,169.304 C 122.447,169.432 126.575,169.948 127.863,169.432 C 129.153,168.403 130.83,166.726 123.996,165.437 L 123.996,165.437 z "
   style="fill-rule:evenodd;stroke:#000000;stroke-width:0.036;stroke-miterlimit:10"
   id="path187" />
	<path
   d="M 28.063,193.546 C 36.316,192.514 44.569,190.966 55.27,189.419 C 65.584,187.484 79.252,183.875 89.826,182.07 C 100.27,179.62 110.715,177.686 117.16,176.783 C 122.833,175.751 125.414,175.88 126.445,176.654 C 127.605,176.913 129.539,178.331 124.252,179.877 C 118.323,181.168 103.881,182.973 93.309,185.294 C 82.605,187.357 71.904,190.194 60.686,192.386 C 49.081,194.063 35.284,196.125 26.258,197.157 C 16.716,198.06 9.754,199.349 5.37,199.478 C 0.986,199.091 -0.303,198.06 0.083,197.414 C 0.083,196.77 1.244,195.996 6.015,195.609 C 10.786,194.835 19.296,194.318 28.063,193.546 L 28.063,193.546 z "
   style="fill-rule:evenodd;stroke:#000000;stroke-width:0.036;stroke-miterlimit:10"
   id="path189" />
	<path
   d="M 33.866,235.837 C 41.474,231.712 58.494,223.072 68.938,217.915 C 78.866,212.5 85.7,209.664 94.467,205.409 C 102.721,200.638 114.584,194.706 120.127,192.642 C 125.415,190.709 126.961,191.612 126.187,193.288 C 125.285,194.063 121.676,196.124 114.324,199.993 C 105.944,203.862 91.374,210.308 79.641,216.368 C 68.292,222.171 56.559,228.103 46.374,234.162 C 35.671,239.835 22.649,246.668 16.201,250.154 C 9.109,252.991 7.048,252.732 6.016,252.343 C 4.854,251.828 6.918,249.251 10.142,247.572 C 12.978,245.121 19.426,243.058 23.552,240.866 C 26.903,239.062 26.517,239.189 33.866,235.837 L 33.866,235.837 z "
   style="fill-rule:evenodd;stroke:#000000;stroke-width:0.036;stroke-miterlimit:10"
   id="path191" />
	<path
   d="M 249.712,149.964 C 256.416,147.125 273.566,143.645 286.717,139.52 C 299.481,134.749 314.696,128.816 326.431,124.176 C 338.036,119.275 349.898,113.215 355.571,111.54 C 360.73,109.733 359.569,112.184 359.054,113.475 C 358.408,113.989 358.925,113.475 352.604,116.439 C 345.644,119.148 331.074,126.367 319.855,131.138 C 308.25,135.78 296.26,140.163 285.946,144.289 C 275.502,147.642 264.799,150.478 258.351,152.285 C 251.647,153.831 247.778,154.993 246.746,154.734 C 245.2,154.219 242.878,152.285 249.712,149.964 L 249.712,149.964 z "
   style="fill-rule:evenodd;stroke:#000000;stroke-width:0.036;stroke-miterlimit:10"
   id="path193" />
	<path
   d="M 341.257,159.893 C 332.747,160.537 324.237,161.053 313.793,161.438 C 303.094,161.567 288.782,161.052 278.337,161.311 C 267.504,161.182 256.931,161.311 250.614,161.697 C 244.423,161.826 242.363,162.73 241.461,163.373 C 240.429,164.019 238.235,165.437 244.298,166.082 C 249.971,166.339 264.539,165.05 275.629,165.178 C 286.458,165.178 297.421,165.437 309.024,165.437 C 320.499,164.921 334.039,163.632 343.71,163.116 C 353.122,162.214 359.957,162.085 364.728,161.312 C 368.853,160.15 369.241,158.732 369.371,158.087 C 369.241,157.314 367.565,157.314 363.308,157.571 C 358.152,158.086 349.639,158.86 341.257,159.893 L 341.257,159.893 z "
   style="fill-rule:evenodd;stroke:#000000;stroke-width:0.036;stroke-miterlimit:10"
   id="path195" />
	<path
   d="M 333.521,191.611 C 325.27,189.032 306.187,184.26 295.612,181.295 C 284.396,178.331 274.853,176.01 268.022,174.333 C 261.059,172.529 257.32,170.724 254.353,170.852 C 250.615,170.595 247.519,171.368 248.551,172.659 C 249.323,173.819 255.644,174.721 261.572,176.784 C 267.119,178.073 274.983,179.491 284.654,182.071 C 294.584,184.649 309.151,188.776 320.887,192.515 C 332.234,195.608 346.545,200.25 353.894,201.927 C 360.6,203.345 363.565,202.184 364.208,201.927 C 364.981,201.025 362.145,199.607 359.179,198.188 C 355.828,196.64 348.865,195.352 344.741,194.319 C 340.101,192.9 341.647,193.803 333.521,191.611 L 333.521,191.611 z "
   style="fill-rule:evenodd;stroke:#000000;stroke-width:0.036;stroke-miterlimit:10"
   id="path197" />
	<path
   d="M 184.21,58.544 C 185.242,57.126 186.402,55.064 189.11,52.871 C 191.43,50.68 196.975,46.811 199.296,45.263 C 200.973,43.329 201.747,42.04 201.616,41.396 C 201.23,40.494 200.714,40.106 199.554,40.751 C 198.007,41.267 196.33,42.942 194.524,44.747 C 192.589,46.295 190.915,47.713 188.981,49.518 C 186.917,50.809 183.951,53.259 183.049,54.935 C 182.018,56.353 181.114,58.158 181.759,58.933 C 181.76,59.446 182.921,59.319 184.21,58.544 L 184.21,58.544 z "
   style="fill-rule:evenodd;stroke:#000000;stroke-width:0.036;stroke-miterlimit:10"
   id="path199" />
	<path
   d="M 179.698,56.868 C 180.213,55.837 180.988,53.259 182.534,51.195 C 183.951,48.487 187.691,45.006 189.238,42.814 C 190.528,41.007 190.269,39.333 190.528,39.203 C 190.4,38.043 189.11,38.43 188.594,38.946 C 187.563,39.59 186.273,41.396 185.242,43.329 C 183.951,45.006 182.791,46.554 181.759,48.488 C 180.212,50.293 178.794,52.355 178.02,54.161 C 177.247,55.45 177.118,57.126 177.634,57.642 C 177.635,58.028 178.794,57.771 179.698,56.868 L 179.698,56.868 z "
   style="fill-rule:evenodd;stroke:#000000;stroke-width:0.036;stroke-miterlimit:10"
   id="path201" />
	<path
   d="M 158.164,61.381 C 157.003,60.221 156.23,57.514 154.811,55.708 C 153.264,53.903 152.104,52.228 150.299,51.196 C 147.977,49.907 145.27,49.262 144.111,48.746 C 142.563,47.974 143.079,46.941 143.206,46.682 C 142.949,45.91 143.722,45.393 145.013,45.652 C 146.042,45.652 148.236,45.652 150.556,47.585 C 152.49,49.133 155.843,52.356 157.647,54.806 C 159.196,56.61 160.098,58.804 160.355,59.963 C 160.099,61.124 159.197,61.769 158.164,61.381 L 158.164,61.381 z "
   style="fill-rule:evenodd;stroke:#000000;stroke-width:0.036;stroke-miterlimit:10"
   id="path203" />
	<path
   d="M 164.095,58.287 C 162.805,56.998 161.646,53.13 160.615,50.68 C 159.197,47.456 158.422,44.233 158.295,42.556 C 158.036,41.008 159.324,40.365 160.228,41.138 C 160.615,41.525 160.744,43.459 161.646,45.522 C 162.291,47.07 163.322,50.81 164.224,52.743 C 164.611,54.161 165.772,55.967 165.772,56.74 C 165.386,57.771 164.997,58.803 164.095,58.287 L 164.095,58.287 z "
   style="fill-rule:evenodd;stroke:#000000;stroke-width:0.036;stroke-miterlimit:10"
   id="path205" />
	<path
   d="M 171.703,55.708 C 171.187,55.192 170.801,54.162 171.06,52.614 C 171.06,50.937 171.703,47.714 172.478,45.909 C 173.122,43.845 174.152,42.04 175.056,40.494 C 175.442,38.431 175.056,36.109 175.829,34.562 C 176.345,32.757 177.635,30.177 178.665,29.791 C 179.053,28.889 180.212,29.921 180.212,30.953 C 179.824,31.726 178.665,33.661 178.277,35.335 C 177.375,37.142 177.633,38.688 177.117,41.008 C 175.956,43.201 175.054,45.652 174.409,47.843 C 173.636,49.391 173.507,50.937 173.507,51.969 C 173.379,52.743 173.379,53.259 173.507,54.032 C 172.864,54.677 172.09,55.708 171.703,55.708 L 171.703,55.708 z "
   style="fill-rule:evenodd;stroke:#000000;stroke-width:0.036;stroke-miterlimit:10"
   id="path207" />
	<path
   d="M 185.372,169.046 C 180.988,169.305 177.119,169.305 173.767,169.046 C 170.414,168.403 167.449,167.628 164.354,166.21 C 160.744,164.405 157.132,160.795 153.007,158.861 C 148.236,156.669 142.177,154.734 138.308,153.058 C 134.439,151.383 131.99,149.965 130.441,148.287 C 128.251,145.836 127.088,143.259 126.961,140.55 C 126.445,138.102 126.833,134.877 129.153,133.331 C 131.602,131.138 135.471,129.592 140.758,129.204 C 145.27,128.302 152.232,129.85 158.164,130.881 C 163.968,131.654 170.67,135.136 175.829,135.909 C 180.472,136.425 181.373,136.168 186.917,134.621 C 192.204,132.557 201.1,127.786 207.675,126.24 C 214.381,124.822 220.314,124.822 224.955,125.724 C 228.823,126.111 230.886,126.884 231.659,129.592 C 232.175,132.041 230.886,136.682 228.823,140.55 C 225.857,143.775 220.828,147.771 217.733,150.608 C 215.156,153.188 214.254,154.993 212.576,157.57 C 210.512,159.893 208.967,163.115 205.485,165.178 C 201.23,166.855 196.201,168.144 188.981,168.53 L 188.981,168.53 C 188.981,174.333 189.497,179.877 190.528,185.164 C 191.43,190.321 192.334,195.222 194.783,199.863 C 196.974,204.248 200.714,208.503 204.066,212.113 C 206.903,215.079 209.482,217.529 213.221,218.947 C 216.7,220.365 221.858,220.882 225.727,220.495 C 229.211,219.72 232.048,218.56 235.657,215.981 C 239.267,213.016 244.423,207.213 247.134,205.536 C 249.323,203.602 249.582,205.15 249.453,206.182 C 248.938,207.084 247.004,209.535 244.682,211.985 C 242.105,214.176 239.009,217.786 234.886,219.849 C 230.115,221.784 224.825,223.331 219.538,223.46 C 214.381,223.072 209.353,220.881 205.485,218.301 C 201.616,215.465 197.877,209.921 195.685,206.698 C 193.106,203.345 191.43,199.736 190.657,197.285 L 190.657,197.285 C 190.012,202.443 188.722,207.084 186.788,211.726 C 184.596,216.11 181.89,220.881 178.665,224.104 C 175.055,226.812 171.445,228.229 167.318,228.875 C 162.935,229.261 158.294,228.103 153.908,227.328 C 149.267,225.91 144.882,224.234 141.273,222.3 C 137.531,220.236 133.406,216.756 131.858,215.338 C 130.182,213.403 130.956,211.985 131.731,212.113 C 132.247,211.855 133.277,213.144 135.341,214.563 C 136.888,215.724 139.596,217.529 142.433,219.463 C 145.269,220.752 148.235,222.815 152.361,224.104 C 156.229,225.136 161.902,226.039 165.9,226.297 C 169.51,225.909 172.089,225.006 175.055,223.072 C 177.634,221.397 179.569,218.43 181.889,214.692 C 183.824,210.05 186.787,202.7 187.82,197.672 C 188.465,192.772 187.949,189.42 187.82,185.68 C 187.433,181.684 186.402,176.913 186.145,174.333 C 185.629,171.496 185.372,169.562 185.372,169.046 L 185.372,169.046 z "
   style="fill-rule:evenodd;stroke:#000000;stroke-width:0.036;stroke-miterlimit:10"
   id="path209" />
	<path
   d="M 133.15,137.843 C 133.15,138.359 133.666,138.875 134.31,138.875 C 135.085,138.875 135.598,138.359 135.598,137.843 C 135.598,137.327 135.085,136.811 134.31,136.811 C 133.667,136.811 133.15,137.327 133.15,137.843 L 133.15,137.843 z "
   style="fill:#ffffff;fill-rule:evenodd;stroke:#000000;stroke-width:0.036;stroke-miterlimit:10"
   id="path211" />
	<path
   d="M 135.471,135.651 C 135.471,136.167 135.988,136.681 136.761,136.681 C 137.406,136.681 137.922,136.166 137.922,135.651 C 137.922,135.135 137.406,134.62 136.761,134.62 C 135.987,134.62 135.471,135.135 135.471,135.651 L 135.471,135.651 z "
   style="fill:#ffffff;fill-rule:evenodd;stroke:#000000;stroke-width:0.036;stroke-miterlimit:10"
   id="path213" />
	<path
   d="M 159.969,136.811 C 159.969,137.327 160.615,137.843 161.259,137.843 C 161.904,137.843 162.55,137.327 162.55,136.811 C 162.55,136.167 161.904,135.779 161.259,135.779 C 160.615,135.779 159.969,136.167 159.969,136.811 L 159.969,136.811 z "
   style="fill:#ffffff;fill-rule:evenodd;stroke:#000000;stroke-width:0.036;stroke-miterlimit:10"
   id="path215" />
	<path
   d="M 163.709,138.488 C 163.709,139.004 164.354,139.52 164.997,139.52 C 165.642,139.52 166.288,139.004 166.288,138.488 C 166.288,137.842 165.642,137.456 164.997,137.456 C 164.354,137.457 163.709,137.843 163.709,138.488 L 163.709,138.488 z "
   style="fill:#ffffff;fill-rule:evenodd;stroke:#000000;stroke-width:0.036;stroke-miterlimit:10"
   id="path217" />
	<path
   d="M 219.797,140.55 C 219.797,141.066 220.314,141.582 220.956,141.582 C 221.729,141.582 222.247,141.066 222.247,140.55 C 222.247,139.907 221.729,139.52 220.956,139.52 C 220.314,139.52 219.797,139.907 219.797,140.55 L 219.797,140.55 z "
   style="fill:#ffffff;fill-rule:evenodd;stroke:#000000;stroke-width:0.036;stroke-miterlimit:10"
   id="path219" />
	<path
   d="M 202.906,160.407 C 202.906,160.923 203.421,161.438 204.067,161.438 C 204.839,161.438 205.355,160.923 205.355,160.407 C 205.355,159.763 204.839,159.377 204.067,159.377 C 203.421,159.376 202.906,159.763 202.906,160.407 L 202.906,160.407 z "
   style="fill:#ffffff;fill-rule:evenodd;stroke:#000000;stroke-width:0.036;stroke-miterlimit:10"
   id="path221" />
	<path
   d="M 152.232,132.815 C 150.944,132.556 149.784,132.428 148.752,132.428 C 147.462,132.428 146.301,132.299 145.271,132.556 C 143.981,132.685 141.918,132.685 141.145,133.071 C 139.727,133.33 139.468,133.458 138.952,133.974 C 138.825,134.489 138.436,134.361 139.211,135.005 C 139.468,135.134 139.468,135.134 140.629,135.005 C 141.662,134.619 143.207,133.974 145.272,134.103 C 146.819,133.716 148.109,134.103 149.656,134.232 C 151.074,134.232 151.848,134.488 153.395,135.004 C 154.555,135.263 156.103,135.777 157.005,136.036 C 157.65,135.906 158.166,135.004 158.037,134.874 C 157.649,134.359 156.747,133.972 155.845,133.715 C 154.812,133.202 153.136,133.071 152.232,132.815 L 152.232,132.815 z "
   style="fill:#ffffff;fill-rule:evenodd;stroke:#000000;stroke-width:0.036;stroke-miterlimit:10"
   id="path223" />
	<path
   d="M 210.256,150.607 C 210.642,149.576 210.901,149.318 211.544,148.803 C 211.934,147.9 213.093,147.385 213.995,146.739 C 214.381,145.836 215.542,146.095 216.058,145.58 C 216.96,144.677 217.218,143.516 218.25,143.13 C 218.636,142.614 219.797,142.873 219.797,143.387 C 219.668,143.903 219.022,145.194 218.379,146.223 C 217.733,146.482 216.445,147.514 215.93,147.9 C 214.898,148.287 214.123,148.803 213.609,149.448 C 212.577,149.835 212.706,150.35 212.061,151.51 C 211.029,152.799 210.126,153.961 209.354,155.509 C 208.065,156.411 207.419,157.313 206.904,157.7 C 205.872,157.7 206.002,157.184 205.872,156.669 C 205.614,155.895 206.518,155.509 207.163,154.477 C 207.675,152.928 209.354,151.64 210.256,150.607 L 210.256,150.607 z "
   style="fill:#ffffff;fill-rule:evenodd;stroke:#000000;stroke-width:0.036;stroke-miterlimit:10"
   id="path225" />
	<path
   d="M 44.053,341.312 C 42.119,340.024 39.023,338.604 37.219,337.058 C 34.898,335.123 31.675,333.319 31.03,332.158 C 30.257,330.612 31.03,329.58 32.319,329.58 C 32.835,329.192 33.221,329.71 36.446,331.644 C 39.54,333.449 49.339,338.475 51.918,340.797 C 53.723,342.602 50.758,343.374 49.468,343.633 C 48.179,343.504 45.729,342.213 44.053,341.312 L 44.053,341.312 z "
   style="fill-rule:evenodd;stroke:#000000;stroke-width:0.036;stroke-miterlimit:10"
   id="path227" />
	<path
   d="M 46.374,333.703 C 44.956,332.801 42.893,331.643 41.603,330.741 C 39.668,329.32 37.863,328.159 37.219,327.257 C 36.832,326.225 36.962,325.452 38.121,325.452 C 38.38,325.067 38.637,325.581 40.958,326.998 C 43.278,328.03 49.854,331.769 51.789,333.318 C 52.691,334.479 51.145,335.123 50.113,335.253 C 48.824,335.253 47.921,334.092 46.374,333.703 L 46.374,333.703 z "
   style="fill-rule:evenodd;stroke:#000000;stroke-width:0.036;stroke-miterlimit:10"
   id="path229" />
	<path
   d="M 335.973,346.983 C 337.649,345.826 340.615,344.021 342.807,342.601 C 344.742,340.925 347.963,338.992 348.995,337.83 C 349.513,336.414 348.61,334.994 347.707,335.123 C 346.805,334.735 346.417,335.253 343.581,337.186 C 340.101,338.992 330.3,344.021 328.106,346.34 C 325.917,348.145 328.879,348.917 330.558,349.176 C 331.46,348.918 333.91,348.016 335.973,346.983 L 335.973,346.983 z "
   style="fill-rule:evenodd;stroke:#000000;stroke-width:0.036;stroke-miterlimit:10"
   id="path231" />
	<path
   d="M 333.65,339.377 C 334.812,338.219 336.747,337.187 338.421,336.285 C 339.971,335.253 341.905,333.448 342.807,332.931 C 342.807,332.028 342.677,330.742 341.906,330.996 C 341.004,330.611 341.004,331.125 338.939,332.545 C 336.232,333.577 329.657,337.316 328.107,338.862 C 326.69,339.894 328.625,340.925 329.911,340.925 C 330.687,340.926 332.104,339.765 333.65,339.377 L 333.65,339.377 z "
   style="fill-rule:evenodd;stroke:#000000;stroke-width:0.036;stroke-miterlimit:10"
   id="path233" />
	<path
   d="M 289.167,300.181 C 290.843,299.02 293.809,297.215 296.002,295.795 C 297.937,294.119 301.16,292.185 302.192,291.024 C 302.707,289.607 301.803,288.187 300.901,288.316 C 299.999,288.061 299.612,288.316 296.775,290.509 C 293.294,292.314 283.494,297.473 281.303,299.533 C 279.11,301.341 282.076,302.114 283.752,302.373 C 284.655,302.115 287.102,301.213 289.167,300.181 L 289.167,300.181 z "
   style="fill-rule:evenodd;stroke:#000000;stroke-width:0.036;stroke-miterlimit:10"
   id="path235" />
	<path
   d="M 286.848,292.573 C 288.265,291.412 290.069,290.381 291.747,289.477 C 293.423,288.446 294.84,286.64 296.001,286.126 C 296.001,285.224 295.87,283.933 295.099,284.191 C 294.455,283.803 294.326,284.321 292.262,285.738 C 289.554,287.028 282.979,290.509 281.429,292.183 C 280.142,293.345 281.688,293.989 283.109,294.118 C 283.881,294.119 285.298,292.958 286.848,292.573 L 286.848,292.573 z "
   style="fill-rule:evenodd;stroke:#000000;stroke-width:0.036;stroke-miterlimit:10"
   id="path237" />
	<path
   d="M 93.05,300.181 C 91.114,299.02 88.021,297.215 86.217,295.795 C 83.896,294.119 80.672,292.185 80.028,291.024 C 79.254,289.607 80.028,288.187 81.317,288.316 C 81.833,288.061 82.22,288.316 85.442,290.509 C 88.538,292.314 98.337,297.473 100.916,299.533 C 102.722,301.341 99.755,302.114 98.467,302.373 C 97.176,302.115 94.727,301.213 93.05,300.181 L 93.05,300.181 z "
   style="fill-rule:evenodd;stroke:#000000;stroke-width:0.036;stroke-miterlimit:10"
   id="path239" />
	<path
   d="M 95.37,292.573 C 93.952,291.412 91.89,290.381 90.599,289.477 C 88.666,288.446 86.859,286.64 86.216,286.126 C 85.829,285.224 85.957,283.933 87.118,284.191 C 87.375,283.803 87.634,284.321 89.955,285.738 C 92.276,287.028 98.851,290.509 100.786,292.183 C 101.688,293.345 100.14,293.989 99.11,294.118 C 97.819,294.119 96.917,292.958 95.37,292.573 L 95.37,292.573 z "
   style="fill-rule:evenodd;stroke:#000000;stroke-width:0.036;stroke-miterlimit:10"
   id="path241" />
</g>
</svg>